<svg id="Capa_1" data-name="Capa 1" xmlns="http://www.w3.org/2000/svg" viewBox="0 0 475.47 594.48"><defs><style>.cls-1{fill:#dfe7f2;}</style></defs><title>botica-textura 2 completa</title><path class="cls-1" d="M347.13,367.57a1,1,0,0,1,0-2.09h9.35a1,1,0,1,1,0,2.09Zm11.47-22.37a1,1,0,1,1,2.09,0v4.63h4.62a1,1,0,0,1,0,2.09h-4.62v4.63a1,1,0,1,1-2.09,0v-4.63H354a1,1,0,0,1,0-2.09h4.63ZM338.9,358.26a1,1,0,1,1,2.09,0v12.87h37.28v-5a1,1,0,1,1,2.09,0v13.06a1,1,0,1,1-2.09,0v-5.91H341v5.91a1,1,0,1,1-2.09,0V358.26Z"/><path class="cls-1" d="M284.34,379.8a16.1,16.1,0,0,1-.08,31.63,1,1,0,0,1-1.21-.84.8.8,0,0,1,0-.18h0v-29.6a1,1,0,0,1,1-1l.27,0Zm7.73,6.88a13.94,13.94,0,0,0-6.95-4.55v27a14,14,0,0,0,6.95-22.42Zm-13.85,24.74a16.11,16.11,0,0,1,.08-31.63,1,1,0,0,1,1.21.84.94.94,0,0,1,0,.2h0v29.6a1.05,1.05,0,0,1-1,1,.9.9,0,0,1-.28,0Zm-7.73-6.88a14,14,0,0,0,7,4.55v-27a14,14,0,0,0-7,22.42Z"/><path class="cls-1" d="M327.36,412.79l29.31,10.29a4.5,4.5,0,0,1,2.57,2.31h0a4.5,4.5,0,0,1,.19,3.45L352.72,448a4.5,4.5,0,0,1-2.31,2.57h0a4.45,4.45,0,0,1-3.44.2l-29.31-10.29a4.5,4.5,0,0,1-2.57-2.31h0a4.5,4.5,0,0,1-.19-3.45l6.71-19.12a4.5,4.5,0,0,1,2.31-2.57h0a4.44,4.44,0,0,1,3.44-.2ZM356,425.05l-29.31-10.29a2.4,2.4,0,0,0-1.85.1h0a2.38,2.38,0,0,0-1.24,1.38l-6.71,19.12a2.38,2.38,0,0,0,.1,1.85h0a2.4,2.4,0,0,0,1.38,1.24l29.31,10.29a2.4,2.4,0,0,0,1.85-.1h0a2.38,2.38,0,0,0,1.24-1.38l6.71-19.12a2.38,2.38,0,0,0-.1-1.85h0a2.4,2.4,0,0,0-1.38-1.24Zm-15.6-2.43a9.86,9.86,0,1,1-7.55.41,9.84,9.84,0,0,1,7.55-.41Zm3.74,5.94a7.8,7.8,0,1,0,.32,6,7.74,7.74,0,0,0-.32-6Zm-6.43-1.43a1,1,0,0,1,2,.69l-1.22,3.47,3.46,1.22a1,1,0,0,1-.69,2l-3.46-1.22-1.22,3.46a1,1,0,1,1-2-.69l1.22-3.46-3.47-1.22a1,1,0,0,1,.69-2l3.47,1.22Zm2-21.13,11.59,4.07a3.38,3.38,0,0,1,2.06,4.29l-1.81,5.16a1,1,0,0,1-1.33.64L346.92,419a1,1,0,0,1-.64-1.33l1-3a.33.33,0,0,0-.2-.41l-6.83-2.4a.33.33,0,0,0-.24,0h0a.33.33,0,0,0-.17.18l-1,3a1,1,0,0,1-1.33.64l-3.28-1.15a1,1,0,0,1-.64-1.33l1.81-5.16a3.38,3.38,0,0,1,4.29-2.06Zm10.9,6L339,408a1.29,1.29,0,0,0-1.62.78l-1.46,4.17,1.3.46.7-2a2.4,2.4,0,0,1,1.23-1.37h0a2.45,2.45,0,0,1,1.84-.11l6.83,2.4a2.43,2.43,0,0,1,1.48,3.08l-.7,2,1.3.46,1.46-4.17a1.29,1.29,0,0,0-.78-1.62Z"/><path class="cls-1" d="M359.93,495.45a1.74,1.74,0,0,1-1.27-.53,1.8,1.8,0,0,1-.53-1.27,1.83,1.83,0,0,1,.53-1.28,1.8,1.8,0,0,1,2.55,0,1.83,1.83,0,0,1,.53,1.28,1.8,1.8,0,0,1-.53,1.27,1.75,1.75,0,0,1-1.28.53Zm30.77-30.76a1.81,1.81,0,1,0-.53,1.27,1.8,1.8,0,0,0,.53-1.27Zm-1,6.83a1.85,1.85,0,0,0-.53-1.28,1.8,1.8,0,0,0-2.55,0,1.85,1.85,0,0,0-.53,1.28,1.8,1.8,0,0,0,.53,1.27,1.8,1.8,0,0,0,2.55,0,1.8,1.8,0,0,0,.53-1.27Zm-5.86-5.86a1.8,1.8,0,0,0-.53-1.28h0a1.8,1.8,0,0,0-1.27-.53,1.82,1.82,0,0,0-1.19.45l-.08.08h0a1.8,1.8,0,0,0,0,2.55h0a1.79,1.79,0,0,0,2.45.08l.1-.08h0a1.8,1.8,0,0,0,.53-1.27Zm-8.77,6.42a1,1,0,1,1,1.48-1.48L383,477a1,1,0,0,1-1.48,1.48Zm16.26-13.17,3.31,3.31a6.77,6.77,0,0,1,0,9.54L367,499.41a6.73,6.73,0,0,1-9.54,0l-3.31-3.31a6.73,6.73,0,0,1-2-4.77h0a6.73,6.73,0,0,1,2-4.77l27.64-27.65h0a6.77,6.77,0,0,1,9.54,0Zm1.83,4.78-3.31-3.31h0a4.68,4.68,0,0,0-6.58,0h0L355.65,488a4.66,4.66,0,0,0-1.37,3.29h0a4.62,4.62,0,0,0,1.35,3.29l3.31,3.31a4.65,4.65,0,0,0,6.58,0l27.64-27.65a4.68,4.68,0,0,0,0-6.58Zm-27.32,17.63a1.07,1.07,0,0,1,0-1.49,1.05,1.05,0,0,1,1.48,0l6.4,6.4a1,1,0,1,1-1.48,1.48Zm.92,13.14a1.85,1.85,0,0,1-1.28-.53,1.8,1.8,0,0,1,0-2.55,1.85,1.85,0,0,1,1.28-.53,1.8,1.8,0,0,1,1.27.53,1.8,1.8,0,0,1,0,2.55,1.8,1.8,0,0,1-1.27.53Zm-5.87-5.86a1.8,1.8,0,0,1-1.27-.53h0a1.85,1.85,0,0,1-.53-1.28,1.82,1.82,0,0,1,.45-1.19l.08-.08h0a1.8,1.8,0,0,1,2.55,0h0a1.79,1.79,0,0,1,.08,2.45l-.08.1h0a1.8,1.8,0,0,1-1.28.53Z"/><path class="cls-1" d="M248.68,315.92a10.62,10.62,0,0,1,7.36,2.66,10.47,10.47,0,0,1,2.4,3.39,9.8,9.8,0,0,1,2.37-3.42,10.71,10.71,0,0,1,7.5-2.64,10.46,10.46,0,0,1,7.71,3.47,12.33,12.33,0,0,1,3.15,8.3c0,2.48-1.44,5.31-3.57,8.19a.91.91,0,0,1-.22.29c-3.36,4.46-8.34,9-12.19,12.53-1.6,1.45-3,2.72-4,3.7a1,1,0,0,1-1.48,0h0c-1.07-1.07-2.55-2.43-4.2-3.93-5.13-4.73-11.94-11-14.6-16.49a1.25,1.25,0,0,1-.17-.33,9.65,9.65,0,0,1-1-3.95,12.26,12.26,0,0,1,3.15-8.3,10.44,10.44,0,0,1,7.71-3.47Zm6,4.21a8.58,8.58,0,0,0-6-2.12,8.34,8.34,0,0,0-6.18,2.79,10.18,10.18,0,0,0-2.59,6.89,7.09,7.09,0,0,0,.57,2.64h8.65l2.34-5.75a1,1,0,0,1,1.37-.57,1,1,0,0,1,.6.63L258,337l2.93-6.7a1,1,0,0,1,1.37-.54,1,1,0,0,1,.56.59l1.69,4h9.67c1.76-2.41,2.92-4.73,2.92-6.67a10.12,10.12,0,0,0-2.61-6.89,8.33,8.33,0,0,0-6.17-2.79,8.69,8.69,0,0,0-6.1,2.08,9.34,9.34,0,0,0-2.69,6.05h0a1,1,0,0,1-2.06,0,9.81,9.81,0,0,0-2.83-6Zm7.16,27a119.43,119.43,0,0,0,10.74-10.7h-8.7a1,1,0,0,1-1-.64l-1-2.43-3,6.81a1,1,0,0,1-.61.61,1,1,0,0,1-1.34-.63l-4.52-12.3-1.58,3.84a1,1,0,0,1-1,.71h-8.31c2.85,4.76,8.84,10.27,13.46,14.49,1.31,1.21,2.51,2.32,3.51,3.29.92-.89,2.05-1.92,3.29-3.05Zm-8.35-22.51a1.13,1.13,0,0,1,0,.74"/><path class="cls-1" d="M381.1,568.79a7.16,7.16,0,0,1,4.24,3.15,7.06,7.06,0,0,1,.89,2.65,6.61,6.61,0,0,1,2.19-1.75,7.22,7.22,0,0,1,5.36-.24,7.05,7.05,0,0,1,4.3,3.74,8.31,8.31,0,0,1,.42,6c-.48,1.6-2,3.15-3.9,4.59a.61.61,0,0,1-.2.15,68.66,68.66,0,0,1-10.3,5.72c-1.32.62-2.46,1.17-3.28,1.62a.7.7,0,0,1-1-.28h0c-.48-.9-1.18-2.06-1.95-3.36-2.4-4-5.58-9.4-6.22-13.48a.85.85,0,0,1,0-.25,6.51,6.51,0,0,1,.14-2.74,8.26,8.26,0,0,1,3.65-4.75,7,7,0,0,1,5.65-.74Zm3,3.88a5.78,5.78,0,0,0-3.43-2.53,5.62,5.62,0,0,0-4.53.6,6.86,6.86,0,0,0-3,3.94,4.78,4.78,0,0,0-.14,1.81l5.58,1.68,2.63-3.25a.71.71,0,0,1,1-.1.69.69,0,0,1,.27.52l.52,8.88,3.19-3.75a.69.69,0,0,1,1-.09.7.7,0,0,1,.25.49l.31,2.9,6.24,1.88a8.45,8.45,0,0,0,3.18-3.74,6.83,6.83,0,0,0-.35-5,5.62,5.62,0,0,0-3.44-3,5.86,5.86,0,0,0-4.34.16,6.3,6.3,0,0,0-2.91,3.39h0a.7.7,0,0,1-1.34-.38,6.62,6.62,0,0,0-.65-4.45Zm-.63,18.83a80.52,80.52,0,0,0,9-4.82L386.89,585h0a.7.7,0,0,1-.5-.6l-.19-1.77L383,586.44a.69.69,0,0,1-.52.28.7.7,0,0,1-.74-.67l-.53-8.82-1.76,2.17a.7.7,0,0,1-.77.27l-5.37-1.61c.91,3.62,3.71,8.35,5.87,12,.61,1,1.17,2,1.63,2.81.77-.4,1.7-.84,2.72-1.33Zm-1-16.16a.76.76,0,0,1-.16.47"/><path class="cls-1" d="M271,464.62a1,1,0,1,1,1.79-1.09,5.2,5.2,0,0,1,.62,4.37,5.7,5.7,0,0,1-2.48,3.11,1,1,0,0,1-1.09-1.79,3.56,3.56,0,0,0,1.58-1.94,3.16,3.16,0,0,0-.42-2.67Zm5.55-1.24a8.08,8.08,0,0,1-.07,7.69l0,.07v0a9.5,9.5,0,0,1-2.59,2.91l0,0,0,0,0,0,0,0h0l0,0,0,0-.06,0h0l0,0,0,0v0l0,0h0l0,0,0,0h0l0,0h0l-.08.05-.17.1h0l-.14.09h0l-.11.07a8.35,8.35,0,0,1-10.91-2.18h0l-.08-.11-.06-.08-.06-.1a1.05,1.05,0,0,1-.12-.17l0-.06a.92.92,0,0,1-.11-.16l0,0-.13-.21h0l0,0-6.14-10.09-6.15-10.1v0a8.19,8.19,0,0,1,.32-9.57h0a9.63,9.63,0,0,1,6.09-3.71.15.15,0,0,1,.07,0,8.23,8.23,0,0,1,8.58,4.12v0l6.15,10.1,6.14,10.09v0h0l.09.15h0l.08.16h0l.09.14,0,.07,0,.07,0,.07h0Zm-1.94,6.75a6.18,6.18,0,0,0-.16-6.22h0l-.06-.13v0l-.07-.12h0l-5.6-9.2-11.49,7,5.6,9.2h0l.1.17v0l.09.15h0a6.41,6.41,0,0,0,9,1.81l0,0h0l.06,0h0l0,0h0l0,0h0l0,0h0l0,0h0a.48.48,0,0,0,.11-.08h0a7.15,7.15,0,0,0,2.09-2.31Zm-7-17.48-5.6-9.2h0a6.21,6.21,0,0,0-6.49-3.17h0a7.61,7.61,0,0,0-4.77,2.9h0a6.19,6.19,0,0,0-.18,7.24h0l5.6,9.2Z"/><path class="cls-1" d="M469,350.88a1,1,0,1,1,1.79-1.09,5.2,5.2,0,0,1,.62,4.37,5.7,5.7,0,0,1-2.48,3.11,1,1,0,0,1-1.09-1.79,3.56,3.56,0,0,0,1.58-1.94,3.16,3.16,0,0,0-.42-2.67Zm5.55-1.24a8.08,8.08,0,0,1-.07,7.69l0,.07v0a9.5,9.5,0,0,1-2.59,2.91l0,0,0,0,0,0,0,0h0l0,0,0,0-.06,0h0l0,0,0,0v0l0,0h0l0,0,0,0h0l0,0h0l-.08.05-.17.1h0l-.14.09h0l-.11.07a8.35,8.35,0,0,1-10.91-2.18h0l-.08-.11-.06-.08-.06-.1a1.05,1.05,0,0,1-.12-.17l0-.06a.92.92,0,0,1-.11-.16l0,0L459,358h0l0,0-6.14-10.09-6.15-10.1v0a8.19,8.19,0,0,1,.32-9.57h0a9.63,9.63,0,0,1,6.09-3.71.15.15,0,0,1,.07,0,8.23,8.23,0,0,1,8.58,4.12v0l6.15,10.1,6.14,10.09v0h0l.09.15h0l.08.16h0l.09.14,0,.07,0,.07,0,.07h0Zm-1.94,6.75a6.18,6.18,0,0,0-.16-6.22h0l-.06-.13v0l-.07-.12h0l-5.6-9.2-11.49,7,5.6,9.2h0l.1.17v0l.09.15h0a6.41,6.41,0,0,0,9,1.81l0,0h0l.06,0h0l0,0h0l0,0h0l0,0h0l0,0h0a.48.48,0,0,0,.11-.08h0a7.15,7.15,0,0,0,2.09-2.31Zm-7-17.48-5.6-9.2h0a6.21,6.21,0,0,0-6.49-3.17h0a7.61,7.61,0,0,0-4.77,2.9h0a6.19,6.19,0,0,0-.18,7.24h0l5.6,9.2Z"/><path class="cls-1" d="M399.7,391.76v0c0-1,1-1.88,2.71-2.39a20.34,20.34,0,0,1,10,0c1.67.5,2.71,1.35,2.71,2.41v4.16a1.79,1.79,0,0,1-.31,1,13.71,13.71,0,0,1,2.59,1.07c1.48.85,2.33,1.94,2.36,3.18v21.54h0V431c0,1.66-1.52,3.05-4,4a27.32,27.32,0,0,1-16.72,0c-2.48-.93-4-2.33-4-4v-8.36h0V401.16c0-1.26.88-2.34,2.36-3.19a13.71,13.71,0,0,1,2.59-1.07,1.66,1.66,0,0,1-.31-.93v-4.2Zm13.25,6.79v1.26h0a.85.85,0,0,1,0,.21c-.11.8-.88,1.39-2.05,1.74a14,14,0,0,1-6.9,0c-1.17-.35-1.94-.95-2.05-1.74a.84.84,0,0,1,0-.21h0v-1.26a12,12,0,0,0-3.43,1.23c-.84.47-1.31,1-1.31,1.41V406h0c.07.67,1.06,1.37,2.65,2a25.38,25.38,0,0,0,15.25,0c1.59-.6,2.59-1.3,2.65-2v-4.8c0-.45-.47-.93-1.31-1.41a12,12,0,0,0-3.43-1.23Zm-15.8,24.37v0h0v0c0,.68,1,1.41,2.64,2a25.47,25.47,0,0,0,15.27,0c1.63-.61,2.64-1.34,2.64-2v-.06a1.23,1.23,0,0,1,0-.24,1.38,1.38,0,0,1,0-.24V409a10.6,10.6,0,0,1-1.91.93,27.32,27.32,0,0,1-16.72,0,10.6,10.6,0,0,1-1.91-.93v13.49a1.3,1.3,0,0,1,0,.4.11.11,0,0,0,0,.06Zm0,3.11v4.52a1.3,1.3,0,0,1,0,.4.22.22,0,0,0,0,.06h0v0c0,.7,1,1.42,2.64,2a25.47,25.47,0,0,0,15.27,0c1.63-.61,2.64-1.34,2.64-2v0h0a1.23,1.23,0,0,1,0-.24,1.38,1.38,0,0,1,0-.24V426a10.6,10.6,0,0,1-1.91.92,27.32,27.32,0,0,1-16.72,0,10.6,10.6,0,0,1-1.91-.92Zm5.62-29.77a1.15,1.15,0,0,1,.38,0l.1,0a13.83,13.83,0,0,0,1.62.32h.24c.42,0,.86.08,1.34.1h2c.47,0,.92-.06,1.34-.1H410a13.76,13.76,0,0,0,1.58-.31l.07,0a1.15,1.15,0,0,1,.38,0,4.45,4.45,0,0,0,1-.35h0V394l-.61.21a20.34,20.34,0,0,1-10,0l-.61-.21v1.94a4.6,4.6,0,0,0,1,.35Zm8.09,2.43a21.33,21.33,0,0,1-6.88,0v1.12h0c0,.1.24-.15.57-.06a12,12,0,0,0,5.73,0c.33-.1.54.14.57.07h0v-1.12Zm-5.06,14.87H409a1,1,0,0,1,1,1v1.34h1.34a1.05,1.05,0,0,1,1,1v3.25a1,1,0,0,1-1,1h-1.34v1.34a1,1,0,0,1-1,1h-3.25a1,1,0,0,1-1-1v-1.34h-1.34a1,1,0,0,1-1-1V417a1.05,1.05,0,0,1,1-1h1.34V414.6a1,1,0,0,1,1-1Zm2.2,2.09h-1.16V417a1,1,0,0,1-1,1h-1.34v1.16h1.34a1.05,1.05,0,0,1,1,1v1.34H408v-1.34a1.05,1.05,0,0,1,1-1h1.34V418H409a1,1,0,0,1-1-1Zm5-23.88h0a10,10,0,0,0-1.21-.4,18.24,18.24,0,0,0-8.84,0,8.32,8.32,0,0,0-1.2.4,6,6,0,0,0,1.2.42,18.24,18.24,0,0,0,8.84,0,10,10,0,0,0,1.21-.4Z"/><path class="cls-1" d="M448.54,466.53a1,1,0,1,1,2.09,0,9.55,9.55,0,0,1-9.55,9.54,1,1,0,0,1,0-2.09,7.45,7.45,0,0,0,7.46-7.45Zm7.85-.39a15.39,15.39,0,0,1-30.78,0c0-5.83,5.45-14,10.11-21,1.67-2.52,3.25-4.88,4.38-6.85a1,1,0,0,1,1.42-.39,1,1,0,0,1,.38.39h0c1.16,2,2.72,4.34,4.39,6.85,4.66,7,10.1,15.16,10.1,21Zm-6,9.4a13.3,13.3,0,0,0,3.89-9.4c0-5.2-5.26-13.1-9.75-19.85-1.28-1.92-2.51-3.77-3.54-5.44-1,1.69-2.27,3.51-3.56,5.44-4.49,6.76-9.75,14.65-9.75,19.85a13.3,13.3,0,0,0,22.71,9.4Z"/><path class="cls-1" d="M339.46,571.37a1,1,0,0,1,0,2.09,4.71,4.71,0,0,1-4.7-4.7,1,1,0,1,1,2.09,0,2.62,2.62,0,0,0,2.61,2.61Zm-.56-41.93h0a3.61,3.61,0,0,1,2.55,1.06h0a3.62,3.62,0,0,1,1.06,2.57v1.69h1.81a1,1,0,0,1,0,2.09h-1.81v3.78h1.81a1,1,0,0,1,0,2.09h-1.81v3.78h1.81a1,1,0,0,1,0,2.09h-1.81v3.78h1.81a1,1,0,0,1,0,2.09h-1.81v3.79h1.81a1,1,0,0,1,0,2.09h-1.81v1.87a8,8,0,1,1-7.25,0V533.06a3.61,3.61,0,0,1,1.06-2.57h0a3.66,3.66,0,0,1,2.57-1.06Zm0,2.09h0a1.52,1.52,0,0,0-1.09.45h0a1.52,1.52,0,0,0-.45,1.09v29.71h0a1,1,0,0,1-.66,1.09,5.94,5.94,0,0,0-3.77,5.55,6,6,0,1,0,8.16-5.55h0a1.05,1.05,0,0,1-.66-1v-2.51h-.66a1,1,0,0,1,0-2.09h.66v-3.79h-.66a1,1,0,0,1,0-2.09h.66v-3.78h-.66a1,1,0,0,1,0-2.09h.66v-3.78h-.66a1,1,0,0,1,0-2.09h.66v-3.78h-.66a1,1,0,0,1,0-2.09h.66v-1.69A1.55,1.55,0,0,0,340,532h0a1.48,1.48,0,0,0-1.07-.45Z"/><path class="cls-1" d="M237.7,538.64h7.91v-7.89a5.81,5.81,0,0,1,5.77-5.79h4.06a5.81,5.81,0,0,1,5.77,5.79v7.89h7.91a5.81,5.81,0,0,1,5.77,5.77v4.06a5.81,5.81,0,0,1-5.77,5.77h-7.91v7.91a5.81,5.81,0,0,1-5.77,5.77h-4.06a5.81,5.81,0,0,1-5.77-5.77v-7.91H237.7a5.81,5.81,0,0,1-5.77-5.77v-4.06a5.81,5.81,0,0,1,5.77-5.77Zm9,2.09h-9a3.72,3.72,0,0,0-3.68,3.68v4.06a3.71,3.71,0,0,0,3.68,3.68h9a1.05,1.05,0,0,1,1,1v9a3.71,3.71,0,0,0,3.68,3.68h4.06a3.71,3.71,0,0,0,3.68-3.68v-9a1.05,1.05,0,0,1,1-1h9a3.71,3.71,0,0,0,3.68-3.68v-4.06a3.72,3.72,0,0,0-3.68-3.68h-9a1,1,0,0,1-1-1v-8.94a3.71,3.71,0,0,0-3.68-3.7h-4.06a3.71,3.71,0,0,0-3.68,3.7v8.94a1,1,0,0,1-1,1Z"/><path class="cls-1" d="M396.5,326.6h5v-5a3.65,3.65,0,0,1,3.63-3.64h2.55a3.65,3.65,0,0,1,3.63,3.64v5h5a3.65,3.65,0,0,1,3.63,3.63v2.55a3.65,3.65,0,0,1-3.63,3.63h-5v5a3.65,3.65,0,0,1-3.63,3.63h-2.55a3.65,3.65,0,0,1-3.63-3.63v-5h-5a3.65,3.65,0,0,1-3.63-3.63v-2.55a3.65,3.65,0,0,1,3.63-3.63Zm5.62,1.31H396.5a2.33,2.33,0,0,0-2.31,2.31v2.55a2.33,2.33,0,0,0,2.31,2.31h5.62a.66.66,0,0,1,.66.66v5.62a2.33,2.33,0,0,0,2.31,2.31h2.55a2.33,2.33,0,0,0,2.31-2.31v-5.62a.66.66,0,0,1,.66-.66h5.62a2.33,2.33,0,0,0,2.31-2.31v-2.55a2.33,2.33,0,0,0-2.31-2.31h-5.62a.66.66,0,0,1-.66-.66v-5.62a2.33,2.33,0,0,0-2.31-2.32h-2.55a2.33,2.33,0,0,0-2.31,2.32v5.62a.66.66,0,0,1-.66.66Z"/><path class="cls-1" d="M310.39,511v2.59H315a1,1,0,0,1,0,2.09H303.66a1,1,0,0,1,0-2.09h4.63V511h-8a1,1,0,0,1,0-2.09H302v-22h0v-.49a1.07,1.07,0,0,1,.29-.74h0l6-6.17V467.12a1,1,0,1,1,2.09,0v12.34l6,6.17a1.06,1.06,0,0,1,.29.78v.45h0v21.91a.27.27,0,0,1,0,.1h1.76a1,1,0,0,1,0,2.09h-8Zm.68-4a1,1,0,0,1,0-2.09h3.5v-3.28h-3.5a1,1,0,0,1,0-2.09h3.5v-3.28h-3.5a1,1,0,0,1,0-2.09h3.5v-3.26h-3.5a1,1,0,0,1,0-2.09h3.5v-1.87h0v-.07l-5.23-5.4-5.23,5.4v.07h0v21.91a.11.11,0,0,0,0,.06h0l.06,0h10.28l.07,0s0,0,0-.07v-1.86Z"/><path class="cls-1" d="M418.33,545.37a5.09,5.09,0,1,1-3.5,8.79,11.63,11.63,0,0,1-4,.8,6.9,6.9,0,0,1-5.86-3.12,15.23,15.23,0,0,1-2.3-6.57,34.05,34.05,0,0,1,.15-9.76,12,12,0,0,1-10.67-10.88,1.09,1.09,0,0,1,0-.31v-.71h0V512.9a2.67,2.67,0,0,1,.14-3.65,2.69,2.69,0,0,1,3.79,0,2.69,2.69,0,0,1,0,3.79,2.68,2.68,0,0,1-1.84.78v9.78h0v.5c0,.06,0,.1,0,.14a9.73,9.73,0,0,0,3.1,6.57,9.87,9.87,0,0,0,16.58-6.5.92.92,0,0,1,0-.21v-.47h0v-9.81a2.68,2.68,0,1,1,2.09-.92v10.73h0v.68a1.09,1.09,0,0,1,0,.31,12,12,0,0,1-11,10.92,32,32,0,0,0-.2,9.43,13.23,13.23,0,0,0,1.94,5.66,4.91,4.91,0,0,0,4.16,2.23,8.63,8.63,0,0,0,2.83-.49,5.13,5.13,0,0,1-.38-1.91,5.1,5.1,0,0,1,5.09-5.09Zm-23.81-34.65a.59.59,0,0,0-.42-.17.55.55,0,0,0-.42.17.57.57,0,0,0,0,.84.6.6,0,0,0,.42.17.66.66,0,0,0,.42-.17.61.61,0,0,0,0-.84Zm19.85,0a.59.59,0,0,0-.84.84.59.59,0,0,0,.84-.84ZM415.75,552a1,1,0,0,1,.43.5.19.19,0,0,1,0,.11,3,3,0,0,0,5.1-2.13,3,3,0,1,0-5.58,1.52Z"/><circle class="cls-1" cx="410.83" cy="491.95" r="2.54"/><circle class="cls-1" cx="334.92" cy="515.74" r="2.54"/><circle class="cls-1" cx="285.25" cy="453.82" r="2.54"/><circle class="cls-1" cx="319.53" cy="368.81" r="2.54"/><circle class="cls-1" cx="295.39" cy="346.78" r="2.54"/><circle class="cls-1" cx="450.71" cy="409.04" r="2.54"/><circle class="cls-1" cx="448.26" cy="365.32" r="2.54"/><circle class="cls-1" cx="437.42" cy="522.03" r="2.54"/><circle class="cls-1" cx="374.45" cy="541.62" r="2.54"/><circle class="cls-1" cx="241.52" cy="359.72" r="2.54"/><circle class="cls-1" cx="271.6" cy="526.93" r="2.54"/><circle class="cls-1" cx="237.67" cy="503.84" r="2.54"/><circle class="cls-1" cx="407.33" cy="448.92" r="2.54"/><circle class="cls-1" cx="403.83" cy="362.87" r="2.54"/><circle class="cls-1" cx="340.52" cy="462.92" r="2.54"/><circle class="cls-1" cx="354.16" cy="560.86" r="2.54"/><circle class="cls-1" cx="374.8" cy="430.03" r="2.54"/><circle class="cls-1" cx="292.59" cy="421.64" r="2.54"/><circle class="cls-1" cx="304.14" cy="567.86" r="2.54"/><circle class="cls-1" cx="253.41" cy="403.8" r="2.54"/><path class="cls-1" d="M126.87,309.24a1,1,0,0,1,0-2.09h9.35a1,1,0,1,1,0,2.09Zm11.47-22.37a1,1,0,1,1,2.09,0v4.63H145a1,1,0,0,1,0,2.09h-4.62v4.63a1,1,0,1,1-2.09,0v-4.63h-4.63a1,1,0,0,1,0-2.09h4.63Zm-19.69,13.06a1,1,0,1,1,2.09,0V312.8H158v-5a1,1,0,1,1,2.09,0v13.06a1,1,0,1,1-2.09,0v-5.91H120.73v5.91a1,1,0,1,1-2.09,0V299.93Z"/><path class="cls-1" d="M64.08,321.47A16.1,16.1,0,0,1,64,353.11a1,1,0,0,1-1.21-.84.8.8,0,0,1,0-.18h0v-29.6a1,1,0,0,1,1-1l.27,0Zm7.73,6.88a13.94,13.94,0,0,0-6.95-4.55v27a14,14,0,0,0,6.95-22.42ZM58,353.09A16.11,16.11,0,0,1,58,321.46a1,1,0,0,1,1.21.84.94.94,0,0,1,0,.2h0v29.6a1.05,1.05,0,0,1-1,1,.9.9,0,0,1-.28,0Zm-7.73-6.88a14,14,0,0,0,7,4.55v-27a14,14,0,0,0-7,22.42Z"/><path class="cls-1" d="M107.1,354.46l29.31,10.29a4.5,4.5,0,0,1,2.57,2.31h0a4.5,4.5,0,0,1,.19,3.45l-6.71,19.12a4.5,4.5,0,0,1-2.31,2.57h0a4.45,4.45,0,0,1-3.44.2L97.4,382.11a4.5,4.5,0,0,1-2.57-2.31h0a4.5,4.5,0,0,1-.19-3.45l6.71-19.12a4.5,4.5,0,0,1,2.31-2.57h0a4.44,4.44,0,0,1,3.44-.2Zm28.61,12.27-29.31-10.29a2.4,2.4,0,0,0-1.85.1h0a2.38,2.38,0,0,0-1.24,1.38L96.6,377a2.38,2.38,0,0,0,.1,1.85h0a2.4,2.4,0,0,0,1.38,1.24l29.31,10.29a2.4,2.4,0,0,0,1.85-.1h0a2.38,2.38,0,0,0,1.24-1.38l6.71-19.12a2.38,2.38,0,0,0-.1-1.85h0a2.4,2.4,0,0,0-1.38-1.24Zm-15.6-2.43a9.86,9.86,0,1,1-7.55.41,9.84,9.84,0,0,1,7.55-.41Zm3.74,5.94a7.8,7.8,0,1,0,.32,6,7.74,7.74,0,0,0-.32-6Zm-6.43-1.43a1,1,0,0,1,2,.69L118.18,373l3.46,1.22a1,1,0,0,1-.69,2l-3.46-1.22-1.22,3.46a1,1,0,1,1-2-.69l1.22-3.46L112,373a1,1,0,0,1,.69-2l3.47,1.22Zm2-21.13L131,351.74a3.38,3.38,0,0,1,2.06,4.29l-1.81,5.16a1,1,0,0,1-1.33.64l-3.28-1.15a1,1,0,0,1-.64-1.33l1-3a.33.33,0,0,0-.2-.41l-6.83-2.4a.33.33,0,0,0-.24,0h0a.33.33,0,0,0-.17.18l-1,3a1,1,0,0,1-1.33.64L114,356.22a1,1,0,0,1-.64-1.33l1.81-5.16a3.38,3.38,0,0,1,4.29-2.06Zm10.9,6-11.59-4.07a1.29,1.29,0,0,0-1.62.78l-1.46,4.17,1.3.46.7-2a2.4,2.4,0,0,1,1.23-1.37h0a2.45,2.45,0,0,1,1.84-.11l6.83,2.4A2.43,2.43,0,0,1,129,357l-.7,2,1.3.46,1.46-4.17a1.29,1.29,0,0,0-.78-1.62Z"/><path class="cls-1" d="M139.67,437.12a1.74,1.74,0,0,1-1.27-.53,1.8,1.8,0,0,1-.53-1.27,1.83,1.83,0,0,1,.53-1.28,1.8,1.8,0,0,1,2.55,0,1.83,1.83,0,0,1,.53,1.28,1.8,1.8,0,0,1-.53,1.27,1.75,1.75,0,0,1-1.28.53Zm30.77-30.76a1.81,1.81,0,1,0-.53,1.27,1.8,1.8,0,0,0,.53-1.27Zm-1,6.83a1.85,1.85,0,0,0-.53-1.28,1.8,1.8,0,0,0-2.55,0,1.85,1.85,0,0,0-.53,1.28,1.8,1.8,0,0,0,.53,1.27,1.8,1.8,0,0,0,2.55,0,1.8,1.8,0,0,0,.53-1.27Zm-5.86-5.86a1.8,1.8,0,0,0-.53-1.28h0a1.8,1.8,0,0,0-1.27-.53,1.82,1.82,0,0,0-1.19.45l-.08.08h0a1.8,1.8,0,0,0,0,2.55h0a1.79,1.79,0,0,0,2.45.08l.1-.08h0a1.8,1.8,0,0,0,.53-1.27Zm-8.77,6.42a1,1,0,1,1,1.48-1.48l6.4,6.4a1,1,0,0,1-1.48,1.48Zm16.26-13.17,3.31,3.31a6.77,6.77,0,0,1,0,9.54l-27.64,27.65a6.73,6.73,0,0,1-9.54,0l-3.31-3.31a6.73,6.73,0,0,1-2-4.77h0a6.73,6.73,0,0,1,2-4.77l27.64-27.65h0a6.77,6.77,0,0,1,9.54,0Zm1.83,4.78-3.31-3.31h0a4.68,4.68,0,0,0-6.58,0h0l-27.64,27.65A4.66,4.66,0,0,0,134,433h0a4.62,4.62,0,0,0,1.35,3.29l3.31,3.31a4.65,4.65,0,0,0,6.58,0L172.93,412a4.68,4.68,0,0,0,0-6.58ZM145.6,423a1.07,1.07,0,0,1,0-1.49,1.05,1.05,0,0,1,1.48,0l6.4,6.4a1,1,0,1,1-1.48,1.48Zm.92,13.14a1.85,1.85,0,0,1-1.28-.53,1.8,1.8,0,0,1,0-2.55,1.85,1.85,0,0,1,1.28-.53,1.8,1.8,0,0,1,1.27.53,1.8,1.8,0,0,1,0,2.55,1.8,1.8,0,0,1-1.27.53Zm-5.87-5.86a1.8,1.8,0,0,1-1.27-.53h0a1.85,1.85,0,0,1-.53-1.28,1.82,1.82,0,0,1,.45-1.19l.08-.08h0a1.8,1.8,0,0,1,2.55,0h0a1.79,1.79,0,0,1,.08,2.45l-.08.1h0a1.8,1.8,0,0,1-1.28.53Z"/><path class="cls-1" d="M28.42,257.59a10.62,10.62,0,0,1,7.36,2.66,10.47,10.47,0,0,1,2.4,3.39,9.8,9.8,0,0,1,2.37-3.42,10.71,10.71,0,0,1,7.5-2.64,10.46,10.46,0,0,1,7.71,3.47,12.33,12.33,0,0,1,3.15,8.3c0,2.48-1.44,5.31-3.57,8.19a.91.91,0,0,1-.22.29c-3.36,4.46-8.34,9-12.19,12.53-1.6,1.45-3,2.72-4,3.7a1,1,0,0,1-1.48,0h0c-1.07-1.07-2.55-2.43-4.2-3.93-5.13-4.73-11.94-11-14.6-16.49a1.25,1.25,0,0,1-.17-.33,9.65,9.65,0,0,1-1-3.95,12.26,12.26,0,0,1,3.15-8.3,10.44,10.44,0,0,1,7.71-3.47Zm6,4.21a8.58,8.58,0,0,0-6-2.12,8.34,8.34,0,0,0-6.18,2.79,10.18,10.18,0,0,0-2.59,6.89,7.09,7.09,0,0,0,.57,2.64h8.65l2.34-5.75a1,1,0,0,1,1.37-.57,1,1,0,0,1,.6.63l4.53,12.39,2.93-6.7a1,1,0,0,1,1.37-.54,1,1,0,0,1,.56.59l1.69,4h9.67c1.76-2.41,2.92-4.73,2.92-6.67a10.12,10.12,0,0,0-2.61-6.89,8.33,8.33,0,0,0-6.17-2.79,8.69,8.69,0,0,0-6.1,2.08,9.34,9.34,0,0,0-2.69,6.05h0a1,1,0,0,1-2.06,0,9.81,9.81,0,0,0-2.83-6Zm7.16,27a119.43,119.43,0,0,0,10.74-10.7h-8.7a1,1,0,0,1-1-.64l-1-2.43-3,6.81a1,1,0,0,1-.61.61,1,1,0,0,1-1.34-.63l-4.52-12.3-1.58,3.84a1,1,0,0,1-1,.71H21.27c2.85,4.76,8.84,10.27,13.46,14.49,1.31,1.21,2.51,2.32,3.51,3.29.92-.89,2.05-1.92,3.29-3.05ZM33.18,266.3a1.13,1.13,0,0,1,0,.74"/><path class="cls-1" d="M160.84,510.46a7.16,7.16,0,0,1,4.24,3.15,7.06,7.06,0,0,1,.89,2.65,6.61,6.61,0,0,1,2.19-1.75,7.22,7.22,0,0,1,5.36-.24,7.05,7.05,0,0,1,4.3,3.74,8.31,8.31,0,0,1,.42,6c-.48,1.6-2,3.15-3.9,4.59a.61.61,0,0,1-.2.15,68.66,68.66,0,0,1-10.3,5.72c-1.32.62-2.46,1.17-3.28,1.62a.7.7,0,0,1-1-.28h0c-.48-.9-1.18-2.06-1.95-3.36-2.4-4-5.58-9.4-6.22-13.48a.85.85,0,0,1,0-.25,6.51,6.51,0,0,1,.14-2.74,8.26,8.26,0,0,1,3.65-4.75,7,7,0,0,1,5.65-.74Zm3,3.88a5.78,5.78,0,0,0-3.43-2.53,5.62,5.62,0,0,0-4.53.6,6.86,6.86,0,0,0-3,3.94,4.78,4.78,0,0,0-.14,1.81l5.58,1.68,2.63-3.25a.71.71,0,0,1,1-.1.69.69,0,0,1,.27.52l.52,8.88,3.19-3.75a.69.69,0,0,1,1-.09.7.7,0,0,1,.25.49l.31,2.9,6.24,1.88a8.45,8.45,0,0,0,3.18-3.74,6.83,6.83,0,0,0-.35-5,5.62,5.62,0,0,0-3.44-3,5.86,5.86,0,0,0-4.34.16,6.3,6.3,0,0,0-2.91,3.39h0a.7.7,0,0,1-1.34-.38,6.62,6.62,0,0,0-.65-4.45Zm-.63,18.83a80.52,80.52,0,0,0,9-4.82l-5.62-1.69h0a.7.7,0,0,1-.5-.6l-.19-1.77-3.24,3.82a.69.69,0,0,1-.52.28.7.7,0,0,1-.74-.67l-.53-8.82-1.76,2.17a.7.7,0,0,1-.77.27L153,519.72c.91,3.62,3.71,8.35,5.87,12,.61,1,1.17,2,1.63,2.81.77-.4,1.7-.84,2.72-1.33Zm-1-16.16a.76.76,0,0,1-.16.47"/><path class="cls-1" d="M50.71,406.29a1,1,0,1,1,1.79-1.09,5.2,5.2,0,0,1,.62,4.37,5.7,5.7,0,0,1-2.48,3.11,1,1,0,0,1-1.09-1.79A3.56,3.56,0,0,0,51.13,409a3.16,3.16,0,0,0-.42-2.67Zm5.55-1.24a8.08,8.08,0,0,1-.07,7.69l0,.07v0a9.5,9.5,0,0,1-2.59,2.91l0,0,0,0,0,0,0,0h0l0,0,0,0-.06,0h0l0,0,0,0v0l0,0h0l0,0,0,0h0l0,0h0l-.08.05-.17.1h0l-.14.09h0l-.11.07a8.35,8.35,0,0,1-10.91-2.18h0l-.08-.11-.06-.08-.06-.1a1.05,1.05,0,0,1-.12-.17l0-.06a.92.92,0,0,1-.11-.16l0,0-.13-.21h0l0,0L34.6,403.29l-6.15-10.1v0a8.19,8.19,0,0,1,.32-9.57h0a9.63,9.63,0,0,1,6.09-3.71.15.15,0,0,1,.07,0A8.23,8.23,0,0,1,43.5,384v0l6.15,10.1,6.14,10.09v0h0l.09.15h0l.08.16h0l.09.14,0,.07,0,.07,0,.07h0Zm-1.94,6.75a6.18,6.18,0,0,0-.16-6.22h0l-.06-.13v0l-.07-.12h0l-5.6-9.2-11.49,7,5.6,9.2h0l.1.17v0l.09.15h0a6.41,6.41,0,0,0,9,1.81l0,0h0l.06,0h0l0,0h0l0,0h0l0,0h0l0,0h0a.48.48,0,0,0,.11-.08h0a7.15,7.15,0,0,0,2.09-2.31Zm-7-17.48-5.6-9.2h0a6.21,6.21,0,0,0-6.49-3.17h0a7.61,7.61,0,0,0-4.77,2.9h0a6.19,6.19,0,0,0-.18,7.24h0l5.6,9.2Z"/><path class="cls-1" d="M248.73,292.55a1,1,0,1,1,1.79-1.09,5.2,5.2,0,0,1,.62,4.37,5.7,5.7,0,0,1-2.48,3.11,1,1,0,0,1-1.09-1.79,3.56,3.56,0,0,0,1.58-1.94,3.16,3.16,0,0,0-.42-2.67Zm5.55-1.24a8.08,8.08,0,0,1-.07,7.69l0,.07v0a9.5,9.5,0,0,1-2.59,2.91l0,0,0,0,0,0,0,0h0l0,0,0,0-.06,0h0l0,0,0,0v0l0,0h0l0,0,0,0h0l0,0h0l-.08.05-.17.1h0l-.14.09h0l-.11.07a8.35,8.35,0,0,1-10.91-2.18h0l-.08-.11-.06-.08-.06-.1a1.05,1.05,0,0,1-.12-.17l0-.06a.92.92,0,0,1-.11-.16l0,0-.13-.21h0l0,0-6.14-10.09-6.15-10.1v0a8.19,8.19,0,0,1,.32-9.57h0a9.63,9.63,0,0,1,6.09-3.71.15.15,0,0,1,.07,0,8.23,8.23,0,0,1,8.58,4.12v0l6.15,10.1,6.14,10.09v0h0l.09.15h0l.08.16h0l.09.14,0,.07,0,.07,0,.07h0Zm-1.94,6.75a6.18,6.18,0,0,0-.16-6.22h0l-.06-.13v0l-.07-.12h0l-5.6-9.2-11.49,7,5.6,9.2h0l.1.17v0l.09.15h0a6.41,6.41,0,0,0,9,1.81l0,0h0l.06,0h0l0,0h0l0,0h0l0,0h0l0,0h0a.48.48,0,0,0,.11-.08h0a7.15,7.15,0,0,0,2.09-2.31Zm-7-17.48-5.6-9.2h0a6.21,6.21,0,0,0-6.49-3.17h0a7.61,7.61,0,0,0-4.77,2.9h0a6.19,6.19,0,0,0-.18,7.24h0l5.6,9.2Z"/><path class="cls-1" d="M179.44,333.42v0c0-1,1-1.88,2.71-2.39a20.34,20.34,0,0,1,10,0c1.67.5,2.71,1.35,2.71,2.41v4.16a1.79,1.79,0,0,1-.31,1,13.71,13.71,0,0,1,2.59,1.07c1.48.85,2.33,1.94,2.36,3.18v21.54h0v8.36c0,1.66-1.52,3.05-4,4a27.32,27.32,0,0,1-16.72,0c-2.48-.93-4-2.33-4-4v-8.36h0V342.83c0-1.26.88-2.34,2.36-3.19a13.71,13.71,0,0,1,2.59-1.07,1.66,1.66,0,0,1-.31-.93v-4.2Zm13.25,6.79v1.26h0a.85.85,0,0,1,0,.21c-.11.8-.88,1.39-2.05,1.74a14,14,0,0,1-6.9,0c-1.17-.35-1.94-.95-2.05-1.74a.84.84,0,0,1,0-.21h0v-1.26a12,12,0,0,0-3.43,1.23c-.84.47-1.31,1-1.31,1.41v4.78h0c.07.67,1.06,1.37,2.65,2a25.38,25.38,0,0,0,15.25,0c1.59-.6,2.59-1.3,2.65-2v-4.8c0-.45-.47-.93-1.31-1.41a12,12,0,0,0-3.43-1.23Zm-15.8,24.37v0h0v0c0,.68,1,1.41,2.64,2a25.47,25.47,0,0,0,15.27,0c1.63-.61,2.64-1.34,2.64-2v-.06a1.23,1.23,0,0,1,0-.24,1.38,1.38,0,0,1,0-.24V350.64a10.6,10.6,0,0,1-1.91.93,27.32,27.32,0,0,1-16.72,0,10.6,10.6,0,0,1-1.91-.93v13.49a1.3,1.3,0,0,1,0,.4.11.11,0,0,0,0,.06Zm0,3.11v4.52a1.3,1.3,0,0,1,0,.4.22.22,0,0,0,0,.06h0v0c0,.7,1,1.42,2.64,2a25.47,25.47,0,0,0,15.27,0c1.63-.61,2.64-1.34,2.64-2v0h0a1.23,1.23,0,0,1,0-.24,1.38,1.38,0,0,1,0-.24V367.7a10.6,10.6,0,0,1-1.91.92,27.32,27.32,0,0,1-16.72,0,10.6,10.6,0,0,1-1.91-.92Zm5.62-29.77a1.15,1.15,0,0,1,.38,0l.1,0a13.83,13.83,0,0,0,1.62.32h.24c.42,0,.86.08,1.34.1h2c.47,0,.92-.06,1.34-.1h.31a13.76,13.76,0,0,0,1.58-.31l.07,0a1.15,1.15,0,0,1,.38,0,4.45,4.45,0,0,0,1-.35h0v-1.94l-.61.21a20.34,20.34,0,0,1-10,0l-.61-.21v1.94a4.6,4.6,0,0,0,1,.35Zm8.09,2.43a21.33,21.33,0,0,1-6.88,0v1.12h0c0,.1.24-.15.57-.06a12,12,0,0,0,5.73,0c.33-.1.54.14.57.07h0v-1.12Zm-5.06,14.87h3.25a1,1,0,0,1,1,1v1.34h1.34a1.05,1.05,0,0,1,1,1v3.25a1,1,0,0,1-1,1h-1.34v1.34a1,1,0,0,1-1,1h-3.25a1,1,0,0,1-1-1V363h-1.34a1,1,0,0,1-1-1v-3.25a1.05,1.05,0,0,1,1-1h1.34v-1.34a1,1,0,0,1,1-1Zm2.2,2.09h-1.16v1.34a1,1,0,0,1-1,1H184.2v1.16h1.34a1.05,1.05,0,0,1,1,1v1.34h1.16v-1.34a1.05,1.05,0,0,1,1-1h1.34V359.7h-1.34a1,1,0,0,1-1-1Zm5-23.88h0a10,10,0,0,0-1.21-.4,18.24,18.24,0,0,0-8.84,0,8.32,8.32,0,0,0-1.2.4,6,6,0,0,0,1.2.42,18.24,18.24,0,0,0,8.84,0,10,10,0,0,0,1.21-.4Z"/><path class="cls-1" d="M228.28,408.19a1,1,0,1,1,2.09,0,9.55,9.55,0,0,1-9.55,9.54,1,1,0,0,1,0-2.09,7.45,7.45,0,0,0,7.46-7.45Zm7.85-.39a15.39,15.39,0,0,1-30.78,0c0-5.83,5.45-14,10.11-21,1.67-2.52,3.25-4.88,4.38-6.85a1,1,0,0,1,1.42-.39,1,1,0,0,1,.38.39h0c1.16,2,2.72,4.34,4.39,6.85,4.66,7,10.1,15.16,10.1,21Zm-6,9.4a13.3,13.3,0,0,0,3.89-9.4c0-5.2-5.26-13.1-9.75-19.85-1.28-1.92-2.51-3.77-3.54-5.44-1,1.69-2.27,3.51-3.56,5.44-4.49,6.76-9.75,14.65-9.75,19.85a13.3,13.3,0,0,0,22.71,9.4Z"/><path class="cls-1" d="M119.21,513a1,1,0,0,1,0,2.09,4.71,4.71,0,0,1-4.7-4.7,1,1,0,1,1,2.09,0,2.62,2.62,0,0,0,2.61,2.61Zm-.56-41.93h0a3.61,3.61,0,0,1,2.55,1.06h0a3.62,3.62,0,0,1,1.06,2.57v1.69h1.81a1,1,0,0,1,0,2.09h-1.81v3.78h1.81a1,1,0,0,1,0,2.09h-1.81v3.78h1.81a1,1,0,0,1,0,2.09h-1.81V494h1.81a1,1,0,0,1,0,2.09h-1.81v3.79h1.81a1,1,0,0,1,0,2.09h-1.81v1.87a8,8,0,1,1-7.25,0V474.73a3.61,3.61,0,0,1,1.06-2.57h0a3.66,3.66,0,0,1,2.57-1.06Zm0,2.09h0a1.52,1.52,0,0,0-1.09.45h0a1.52,1.52,0,0,0-.45,1.09v29.71h0a1,1,0,0,1-.66,1.09,5.94,5.94,0,0,0-3.77,5.55,6,6,0,1,0,8.16-5.55h0a1.05,1.05,0,0,1-.66-1V502h-.66a1,1,0,0,1,0-2.09h.66v-3.79h-.66a1,1,0,0,1,0-2.09h.66v-3.78h-.66a1,1,0,0,1,0-2.09h.66v-3.78h-.66a1,1,0,0,1,0-2.09h.66v-3.78h-.66a1,1,0,0,1,0-2.09h.66v-1.69a1.55,1.55,0,0,0-.46-1.09h0a1.48,1.48,0,0,0-1.07-.45Z"/><path class="cls-1" d="M17.44,480.31h7.91v-7.89a5.81,5.81,0,0,1,5.77-5.79h4.06A5.81,5.81,0,0,1,41,472.41v7.89h7.91a5.81,5.81,0,0,1,5.77,5.77v4.06a5.81,5.81,0,0,1-5.77,5.77H41v7.91a5.81,5.81,0,0,1-5.77,5.77H31.12a5.81,5.81,0,0,1-5.77-5.77v-7.91H17.44a5.81,5.81,0,0,1-5.77-5.77v-4.06a5.81,5.81,0,0,1,5.77-5.77Zm9,2.09h-9a3.72,3.72,0,0,0-3.68,3.68v4.06a3.71,3.71,0,0,0,3.68,3.68h9a1.05,1.05,0,0,1,1,1v9a3.71,3.71,0,0,0,3.68,3.68h4.06a3.71,3.71,0,0,0,3.68-3.68v-9a1.05,1.05,0,0,1,1-1h9a3.71,3.71,0,0,0,3.68-3.68v-4.06a3.72,3.72,0,0,0-3.68-3.68h-9a1,1,0,0,1-1-1v-8.94a3.71,3.71,0,0,0-3.68-3.7H31.12a3.71,3.71,0,0,0-3.68,3.7v8.94a1,1,0,0,1-1,1Z"/><path class="cls-1" d="M176.24,268.27h5v-5a3.65,3.65,0,0,1,3.63-3.64h2.55a3.65,3.65,0,0,1,3.63,3.64v5h5a3.65,3.65,0,0,1,3.63,3.63v2.55a3.65,3.65,0,0,1-3.63,3.63h-5v5a3.65,3.65,0,0,1-3.63,3.63h-2.55a3.65,3.65,0,0,1-3.63-3.63v-5h-5a3.65,3.65,0,0,1-3.63-3.63V271.9a3.65,3.65,0,0,1,3.63-3.63Zm5.62,1.31h-5.62a2.33,2.33,0,0,0-2.31,2.31v2.55a2.33,2.33,0,0,0,2.31,2.31h5.62a.66.66,0,0,1,.66.66V283a2.33,2.33,0,0,0,2.31,2.31h2.55A2.33,2.33,0,0,0,189.7,283v-5.62a.66.66,0,0,1,.66-.66H196a2.33,2.33,0,0,0,2.31-2.31V271.9a2.33,2.33,0,0,0-2.31-2.31h-5.62a.66.66,0,0,1-.66-.66v-5.62a2.33,2.33,0,0,0-2.31-2.32h-2.55a2.33,2.33,0,0,0-2.31,2.32v5.62a.66.66,0,0,1-.66.66Z"/><path class="cls-1" d="M90.13,452.63v2.59h4.62a1,1,0,0,1,0,2.09H83.41a1,1,0,0,1,0-2.09H88v-2.59H80a1,1,0,0,1,0-2.09h1.76v-22h0V428a1.07,1.07,0,0,1,.29-.74h0l6-6.17V408.79a1,1,0,1,1,2.09,0v12.34l6,6.17a1.06,1.06,0,0,1,.29.78v.45h0v21.91a.27.27,0,0,1,0,.1h1.76a1,1,0,0,1,0,2.09h-8Zm.68-4a1,1,0,0,1,0-2.09h3.5v-3.28h-3.5a1,1,0,0,1,0-2.09h3.5v-3.28h-3.5a1,1,0,0,1,0-2.09h3.5v-3.26h-3.5a1,1,0,0,1,0-2.09h3.5v-1.87h0v-.07l-5.23-5.4-5.23,5.4v.07h0v21.91a.11.11,0,0,0,0,.06h0l.06,0H94.22l.07,0s0,0,0-.07v-1.86Z"/><path class="cls-1" d="M198.08,487a5.09,5.09,0,1,1-3.5,8.79,11.63,11.63,0,0,1-4,.8,6.9,6.9,0,0,1-5.86-3.12,15.23,15.23,0,0,1-2.3-6.57,34.05,34.05,0,0,1,.15-9.76,12,12,0,0,1-10.67-10.88,1.09,1.09,0,0,1,0-.31v-.71h0v-10.7a2.67,2.67,0,0,1,.14-3.65,2.69,2.69,0,0,1,3.79,0,2.69,2.69,0,0,1,0,3.79,2.68,2.68,0,0,1-1.84.78v9.78h0v.5c0,.06,0,.1,0,.14a9.73,9.73,0,0,0,3.1,6.57,9.87,9.87,0,0,0,16.58-6.5.92.92,0,0,1,0-.21v-.47h0v-9.81a2.68,2.68,0,1,1,2.09-.92v10.73h0V466a1.09,1.09,0,0,1,0,.31,12,12,0,0,1-11,10.92,32,32,0,0,0-.2,9.43,13.23,13.23,0,0,0,1.94,5.66,4.91,4.91,0,0,0,4.16,2.23,8.63,8.63,0,0,0,2.83-.49,5.13,5.13,0,0,1-.38-1.91,5.1,5.1,0,0,1,5.09-5.09Zm-23.81-34.65a.59.59,0,0,0-.42-.17.55.55,0,0,0-.42.17.57.57,0,0,0,0,.84.6.6,0,0,0,.42.17.66.66,0,0,0,.42-.17.61.61,0,0,0,0-.84Zm19.85,0a.59.59,0,0,0-.84.84.59.59,0,0,0,.84-.84Zm1.38,41.26a1,1,0,0,1,.43.5.19.19,0,0,1,0,.11,3,3,0,0,0,5.1-2.13,3,3,0,1,0-5.58,1.52Z"/><circle class="cls-1" cx="190.57" cy="433.62" r="2.54"/><circle class="cls-1" cx="114.66" cy="457.41" r="2.54"/><circle class="cls-1" cx="64.99" cy="395.49" r="2.54"/><circle class="cls-1" cx="99.27" cy="310.48" r="2.54"/><circle class="cls-1" cx="75.14" cy="288.45" r="2.54"/><circle class="cls-1" cx="230.45" cy="350.71" r="2.54"/><circle class="cls-1" cx="228" cy="306.99" r="2.54"/><circle class="cls-1" cx="217.16" cy="463.7" r="2.54"/><circle class="cls-1" cx="154.19" cy="483.29" r="2.54"/><circle class="cls-1" cx="21.26" cy="301.39" r="2.54"/><circle class="cls-1" cx="51.35" cy="468.6" r="2.54"/><circle class="cls-1" cx="17.42" cy="445.51" r="2.54"/><circle class="cls-1" cx="187.08" cy="390.59" r="2.54"/><circle class="cls-1" cx="183.58" cy="304.54" r="2.54"/><circle class="cls-1" cx="120.26" cy="404.58" r="2.54"/><circle class="cls-1" cx="133.9" cy="502.53" r="2.54"/><circle class="cls-1" cx="154.54" cy="371.7" r="2.54"/><circle class="cls-1" cx="72.34" cy="363.31" r="2.54"/><circle class="cls-1" cx="83.88" cy="509.53" r="2.54"/><circle class="cls-1" cx="33.16" cy="345.47" r="2.54"/><path class="cls-1" d="M335.46,110a1,1,0,0,1,0-2.09h9.35a1,1,0,1,1,0,2.09Zm11.47-22.37a1,1,0,1,1,2.09,0v4.63h4.62a1,1,0,0,1,0,2.09H349V99a1,1,0,1,1-2.09,0V94.34h-4.63a1,1,0,0,1,0-2.09h4.63Zm-19.69,13.06a1,1,0,1,1,2.09,0v12.87h37.28v-5a1,1,0,1,1,2.09,0v13.06a1,1,0,1,1-2.09,0v-5.91H329.32v5.91a1,1,0,1,1-2.09,0V100.67Z"/><path class="cls-1" d="M272.67,122.22a16.1,16.1,0,0,1-.08,31.63,1,1,0,0,1-1.21-.84.8.8,0,0,1,0-.18h0v-29.6a1,1,0,0,1,1-1l.27,0Zm7.73,6.88a13.94,13.94,0,0,0-6.95-4.55v27a14,14,0,0,0,6.95-22.42Zm-13.85,24.74a16.11,16.11,0,0,1,.08-31.63,1,1,0,0,1,1.21.84.94.94,0,0,1,0,.2h0v29.6a1.05,1.05,0,0,1-1,1,.9.9,0,0,1-.28,0ZM258.82,147a14,14,0,0,0,7,4.55v-27a14,14,0,0,0-7,22.42Z"/><path class="cls-1" d="M315.69,155.2,345,165.49a4.5,4.5,0,0,1,2.57,2.31h0a4.5,4.5,0,0,1,.19,3.45l-6.71,19.12a4.5,4.5,0,0,1-2.31,2.57h0a4.45,4.45,0,0,1-3.44.2L306,182.85a4.5,4.5,0,0,1-2.57-2.31h0a4.5,4.5,0,0,1-.19-3.45L309.93,158a4.5,4.5,0,0,1,2.31-2.57h0a4.44,4.44,0,0,1,3.44-.2Zm28.61,12.27L315,157.17a2.4,2.4,0,0,0-1.85.1h0a2.38,2.38,0,0,0-1.24,1.38l-6.71,19.12a2.38,2.38,0,0,0,.1,1.85h0a2.4,2.4,0,0,0,1.38,1.24L336,191.17a2.4,2.4,0,0,0,1.85-.1h0a2.38,2.38,0,0,0,1.24-1.38l6.71-19.12a2.38,2.38,0,0,0-.1-1.85h0a2.4,2.4,0,0,0-1.38-1.24ZM328.71,165a9.86,9.86,0,1,1-7.55.41,9.84,9.84,0,0,1,7.55-.41Zm3.74,5.94a7.8,7.8,0,1,0,.32,6,7.74,7.74,0,0,0-.32-6ZM326,169.54a1,1,0,1,1,2,.69l-1.22,3.47,3.46,1.22a1,1,0,0,1-.69,2l-3.46-1.22-1.22,3.46a1,1,0,1,1-2-.69L324.1,175l-3.47-1.22a1,1,0,1,1,.69-2L324.8,173Zm2-21.13,11.59,4.07a3.38,3.38,0,0,1,2.06,4.29l-1.81,5.16a1,1,0,0,1-1.33.64l-3.28-1.15a1,1,0,0,1-.64-1.33l1-3a.33.33,0,0,0-.2-.41l-6.83-2.4a.33.33,0,0,0-.24,0h0a.33.33,0,0,0-.17.18l-1,3a1,1,0,0,1-1.33.64L322.57,157a1,1,0,0,1-.64-1.33l1.81-5.16a3.38,3.38,0,0,1,4.29-2.06Zm10.9,6-11.59-4.07a1.29,1.29,0,0,0-1.62.78l-1.46,4.17,1.3.46.7-2a2.4,2.4,0,0,1,1.23-1.37h0a2.45,2.45,0,0,1,1.84-.11l6.83,2.4a2.43,2.43,0,0,1,1.48,3.08l-.7,2,1.3.46,1.46-4.17a1.29,1.29,0,0,0-.78-1.62Z"/><path class="cls-1" d="M348.26,237.86a1.74,1.74,0,0,1-1.27-.53,1.8,1.8,0,0,1-.53-1.27,1.83,1.83,0,0,1,.53-1.28,1.8,1.8,0,0,1,2.55,0,1.83,1.83,0,0,1,.53,1.28,1.8,1.8,0,0,1-.53,1.27,1.75,1.75,0,0,1-1.28.53ZM379,207.11a1.81,1.81,0,1,0-.53,1.27,1.8,1.8,0,0,0,.53-1.27Zm-1,6.83a1.85,1.85,0,0,0-.53-1.28,1.8,1.8,0,0,0-2.55,0,1.85,1.85,0,0,0-.53,1.28,1.8,1.8,0,0,0,.53,1.27,1.8,1.8,0,0,0,2.55,0,1.8,1.8,0,0,0,.53-1.27Zm-5.86-5.86a1.8,1.8,0,0,0-.53-1.28h0a1.8,1.8,0,0,0-1.27-.53,1.82,1.82,0,0,0-1.19.45l-.08.08h0a1.8,1.8,0,0,0,0,2.55h0a1.79,1.79,0,0,0,2.45.08l.1-.08h0a1.8,1.8,0,0,0,.53-1.27Zm-8.77,6.42A1,1,0,0,1,364.9,213l6.4,6.4a1,1,0,0,1-1.48,1.48Zm16.26-13.17,3.31,3.31a6.77,6.77,0,0,1,0,9.54l-27.64,27.65a6.73,6.73,0,0,1-9.54,0l-3.31-3.31a6.73,6.73,0,0,1-2-4.77h0a6.73,6.73,0,0,1,2-4.77l27.64-27.65h0a6.77,6.77,0,0,1,9.54,0Zm1.83,4.78-3.31-3.31h0a4.68,4.68,0,0,0-6.58,0h0L344,230.46a4.66,4.66,0,0,0-1.37,3.29h0A4.62,4.62,0,0,0,344,237l3.31,3.31a4.65,4.65,0,0,0,6.58,0l27.64-27.65a4.68,4.68,0,0,0,0-6.58Zm-27.32,17.63a1.07,1.07,0,0,1,0-1.49,1.05,1.05,0,0,1,1.48,0l6.4,6.4a1,1,0,1,1-1.48,1.48Zm.92,13.14a1.85,1.85,0,0,1-1.28-.53,1.8,1.8,0,0,1,0-2.55,1.85,1.85,0,0,1,1.28-.53,1.8,1.8,0,0,1,1.27.53,1.8,1.8,0,0,1,0,2.55,1.8,1.8,0,0,1-1.27.53ZM349.24,231a1.8,1.8,0,0,1-1.27-.53h0a1.85,1.85,0,0,1-.53-1.28,1.82,1.82,0,0,1,.45-1.19l.08-.08h0a1.8,1.8,0,0,1,2.55,0h0a1.79,1.79,0,0,1,.08,2.45l-.08.1h0a1.8,1.8,0,0,1-1.28.53Z"/><path class="cls-1" d="M237,58.33A10.62,10.62,0,0,1,244.38,61a10.47,10.47,0,0,1,2.4,3.39A9.8,9.8,0,0,1,249.15,61a10.71,10.71,0,0,1,7.5-2.64,10.46,10.46,0,0,1,7.71,3.47,12.33,12.33,0,0,1,3.15,8.3c0,2.48-1.44,5.31-3.57,8.19a.91.91,0,0,1-.22.29c-3.36,4.46-8.34,9-12.19,12.53-1.6,1.45-3,2.72-4,3.7a1,1,0,0,1-1.48,0h0c-1.07-1.07-2.55-2.43-4.2-3.93-5.13-4.73-11.94-11-14.6-16.49a1.25,1.25,0,0,1-.17-.33,9.65,9.65,0,0,1-1-3.95,12.26,12.26,0,0,1,3.15-8.3A10.44,10.44,0,0,1,237,58.33Zm6,4.21a8.58,8.58,0,0,0-6-2.12,8.34,8.34,0,0,0-6.18,2.79,10.18,10.18,0,0,0-2.59,6.89,7.09,7.09,0,0,0,.57,2.64h8.65L239.8,67a1,1,0,0,1,1.37-.57,1,1,0,0,1,.6.63l4.53,12.39,2.93-6.7a1,1,0,0,1,1.37-.54,1,1,0,0,1,.56.59l1.69,4h9.67c1.76-2.41,2.92-4.73,2.92-6.67a10.12,10.12,0,0,0-2.61-6.89,8.33,8.33,0,0,0-6.17-2.79,8.69,8.69,0,0,0-6.1,2.08,9.34,9.34,0,0,0-2.69,6.05h0a1,1,0,0,1-2.06,0,9.81,9.81,0,0,0-2.83-6Zm7.16,27a119.43,119.43,0,0,0,10.74-10.7h-8.7a1,1,0,0,1-1-.64l-1-2.43-3,6.81a1,1,0,0,1-.61.61,1,1,0,0,1-1.34-.63l-4.52-12.3-1.58,3.84a1,1,0,0,1-1,.71h-8.31c2.85,4.76,8.84,10.27,13.46,14.49,1.31,1.21,2.51,2.32,3.51,3.29.92-.89,2.05-1.92,3.29-3.05ZM241.77,67a1.13,1.13,0,0,1,0,.74"/><path class="cls-1" d="M369.43,311.2a7.16,7.16,0,0,1,4.24,3.15,7.06,7.06,0,0,1,.89,2.65,6.61,6.61,0,0,1,2.19-1.75,7.22,7.22,0,0,1,5.36-.24,7.05,7.05,0,0,1,4.3,3.74,8.31,8.31,0,0,1,.42,6c-.48,1.6-2,3.15-3.9,4.59a.61.61,0,0,1-.2.15,68.66,68.66,0,0,1-10.3,5.72c-1.32.62-2.46,1.17-3.28,1.62a.7.7,0,0,1-1-.28h0c-.48-.9-1.18-2.06-1.95-3.36-2.4-4-5.58-9.4-6.22-13.48a.85.85,0,0,1,0-.25,6.51,6.51,0,0,1,.14-2.74,8.26,8.26,0,0,1,3.65-4.75,7,7,0,0,1,5.65-.74Zm3,3.88a5.78,5.78,0,0,0-3.43-2.53,5.62,5.62,0,0,0-4.53.6,6.86,6.86,0,0,0-3,3.94,4.78,4.78,0,0,0-.14,1.81l5.58,1.68,2.63-3.25a.71.71,0,0,1,1-.1.69.69,0,0,1,.27.52l.52,8.88,3.19-3.75a.69.69,0,0,1,1-.09.7.7,0,0,1,.25.49l.31,2.9,6.24,1.88a8.45,8.45,0,0,0,3.18-3.74,6.83,6.83,0,0,0-.35-5,5.62,5.62,0,0,0-3.44-3,5.86,5.86,0,0,0-4.34.16,6.3,6.3,0,0,0-2.91,3.39h0a.7.7,0,0,1-1.34-.38,6.62,6.62,0,0,0-.65-4.45Zm-.63,18.83a80.52,80.52,0,0,0,9-4.82l-5.62-1.69h0a.7.7,0,0,1-.5-.6l-.19-1.77-3.24,3.82a.69.69,0,0,1-.52.28.7.7,0,0,1-.74-.67l-.53-8.82-1.76,2.17a.7.7,0,0,1-.77.27l-5.37-1.61c.91,3.62,3.71,8.35,5.87,12,.61,1,1.17,2,1.63,2.81.77-.4,1.7-.84,2.72-1.33Zm-1-16.16a.76.76,0,0,1-.16.47"/><path class="cls-1" d="M259.3,207a1,1,0,1,1,1.79-1.09,5.2,5.2,0,0,1,.62,4.37,5.7,5.7,0,0,1-2.48,3.11,1,1,0,0,1-1.09-1.79,3.56,3.56,0,0,0,1.58-1.94,3.16,3.16,0,0,0-.42-2.67Zm5.55-1.24a8.08,8.08,0,0,1-.07,7.69l0,.07v0a9.5,9.5,0,0,1-2.59,2.91l0,0,0,0,0,0,0,0h0l0,0,0,0-.06,0h0l0,0,0,0v0l0,0h0l0,0,0,0h0l0,0h0l-.08.05-.17.1h0l-.14.09h0l-.11.07A8.35,8.35,0,0,1,250,215.1h0l-.08-.11-.06-.08-.06-.1a1.05,1.05,0,0,1-.12-.17l0-.06a.92.92,0,0,1-.11-.16l0,0-.13-.21h0l0,0L243.19,204,237,193.93v0a8.19,8.19,0,0,1,.32-9.57h0a9.63,9.63,0,0,1,6.09-3.71.15.15,0,0,1,.07,0,8.23,8.23,0,0,1,8.58,4.12v0l6.15,10.1L264.39,205v0h0l.09.15h0l.08.16h0l.09.14,0,.07,0,.07,0,.07h0Zm-1.94,6.75a6.18,6.18,0,0,0-.16-6.22h0l-.06-.13v0l-.07-.12h0l-5.6-9.2-11.49,7,5.6,9.2h0l.1.17v0l.09.15h0a6.41,6.41,0,0,0,9,1.81l0,0h0l.06,0h0l0,0h0l0,0h0l0,0h0l0,0h0a.48.48,0,0,0,.11-.08h0a7.15,7.15,0,0,0,2.09-2.31Zm-7-17.48-5.6-9.2h0a6.21,6.21,0,0,0-6.49-3.17h0a7.61,7.61,0,0,0-4.77,2.9h0a6.19,6.19,0,0,0-.18,7.24h0l5.6,9.2Z"/><path class="cls-1" d="M457.32,93.29a1,1,0,1,1,1.79-1.09,5.2,5.2,0,0,1,.62,4.37,5.7,5.7,0,0,1-2.48,3.11,1,1,0,0,1-1.09-1.79A3.56,3.56,0,0,0,457.74,96a3.16,3.16,0,0,0-.42-2.67Zm5.55-1.24a8.08,8.08,0,0,1-.07,7.69l0,.07v0a9.5,9.5,0,0,1-2.59,2.91l0,0,0,0,0,0,0,0h0l0,0,0,0-.06,0h0l0,0,0,0v0l0,0h0l0,0,0,0h0l0,0h0l-.08.05-.17.1h0l-.14.09h0l-.11.07A8.35,8.35,0,0,1,448,101.36h0l-.08-.11-.06-.08-.06-.1a1.05,1.05,0,0,1-.12-.17l0-.06a.92.92,0,0,1-.11-.16l0,0-.13-.21h0l0,0L441.21,90.3l-6.15-10.1v0a8.19,8.19,0,0,1,.32-9.57h0a9.63,9.63,0,0,1,6.09-3.71.15.15,0,0,1,.07,0A8.23,8.23,0,0,1,450.11,71v0l6.15,10.1,6.14,10.09v0h0l.09.15h0l.08.16h0l.09.14,0,.07,0,.07,0,.07h0Zm-1.94,6.75a6.18,6.18,0,0,0-.16-6.22h0l-.06-.13v0l-.07-.12h0l-5.6-9.2-11.49,7,5.6,9.2h0l.1.17v0l.09.15h0a6.41,6.41,0,0,0,9,1.81l0,0h0l.06,0h0l0,0h0l0,0h0l0,0h0l0,0h0a.48.48,0,0,0,.11-.08h0a7.15,7.15,0,0,0,2.09-2.31Zm-7-17.48-5.6-9.2h0a6.21,6.21,0,0,0-6.49-3.17h0a7.61,7.61,0,0,0-4.77,2.9h0a6.19,6.19,0,0,0-.18,7.24h0l5.6,9.2Z"/><path class="cls-1" d="M388,134.17v0c0-1,1-1.88,2.71-2.39a20.34,20.34,0,0,1,10,0c1.67.5,2.71,1.35,2.71,2.41v4.16a1.79,1.79,0,0,1-.31,1,13.71,13.71,0,0,1,2.59,1.07c1.48.85,2.33,1.94,2.36,3.18v21.54h0v8.36c0,1.66-1.52,3.05-4,4a27.32,27.32,0,0,1-16.72,0c-2.48-.93-4-2.33-4-4v-8.36h0V143.57c0-1.26.88-2.34,2.36-3.19a13.71,13.71,0,0,1,2.59-1.07,1.66,1.66,0,0,1-.31-.93v-4.2ZM401.28,141v1.26h0a.85.85,0,0,1,0,.21c-.11.8-.88,1.39-2.05,1.74a14,14,0,0,1-6.9,0c-1.17-.35-1.94-.95-2.05-1.74a.84.84,0,0,1,0-.21h0V141a12,12,0,0,0-3.43,1.23c-.84.47-1.31,1-1.31,1.41v4.78h0c.07.67,1.06,1.37,2.65,2a25.38,25.38,0,0,0,15.25,0c1.59-.6,2.59-1.3,2.65-2v-4.8c0-.45-.47-.93-1.31-1.41a12,12,0,0,0-3.43-1.23Zm-15.8,24.37v0h0v0c0,.68,1,1.41,2.64,2a25.47,25.47,0,0,0,15.27,0c1.63-.61,2.64-1.34,2.64-2v-.06a1.23,1.23,0,0,1,0-.24,1.38,1.38,0,0,1,0-.24V151.38a10.6,10.6,0,0,1-1.91.93,27.32,27.32,0,0,1-16.72,0,10.6,10.6,0,0,1-1.91-.93v13.49a1.3,1.3,0,0,1,0,.4.11.11,0,0,0,0,.06Zm0,3.11V173a1.3,1.3,0,0,1,0,.4.22.22,0,0,0,0,.06h0v0c0,.7,1,1.42,2.64,2a25.47,25.47,0,0,0,15.27,0c1.63-.61,2.64-1.34,2.64-2v0h0a1.23,1.23,0,0,1,0-.24,1.38,1.38,0,0,1,0-.24v-4.51a10.6,10.6,0,0,1-1.91.92,27.32,27.32,0,0,1-16.72,0,10.6,10.6,0,0,1-1.91-.92Zm5.62-29.77a1.15,1.15,0,0,1,.38,0l.1,0a13.83,13.83,0,0,0,1.62.32h.24c.42,0,.86.08,1.34.1h2c.47,0,.92-.06,1.34-.1h.31a13.76,13.76,0,0,0,1.58-.31l.07,0a1.15,1.15,0,0,1,.38,0,4.45,4.45,0,0,0,1-.35h0v-1.94l-.61.21a20.34,20.34,0,0,1-10,0l-.61-.21v1.94a4.6,4.6,0,0,0,1,.35Zm8.09,2.43a21.33,21.33,0,0,1-6.88,0v1.12h0c0,.1.24-.15.57-.06a12,12,0,0,0,5.73,0c.33-.1.54.14.57.07h0V141.1ZM394.13,156h3.25a1,1,0,0,1,1,1v1.34h1.34a1.05,1.05,0,0,1,1,1v3.25a1,1,0,0,1-1,1h-1.34V165a1,1,0,0,1-1,1h-3.25a1,1,0,0,1-1-1V163.7h-1.34a1,1,0,0,1-1-1V159.4a1.05,1.05,0,0,1,1-1h1.34V157a1,1,0,0,1,1-1Zm2.2,2.09h-1.16v1.34a1,1,0,0,1-1,1h-1.34v1.16h1.34a1.05,1.05,0,0,1,1,1V164h1.16v-1.34a1.05,1.05,0,0,1,1-1h1.34v-1.16h-1.34a1,1,0,0,1-1-1Zm5-23.88h0a10,10,0,0,0-1.21-.4,18.24,18.24,0,0,0-8.84,0,8.32,8.32,0,0,0-1.2.4,6,6,0,0,0,1.2.42,18.24,18.24,0,0,0,8.84,0,10,10,0,0,0,1.21-.4Z"/><path class="cls-1" d="M436.87,208.94a1,1,0,1,1,2.09,0,9.55,9.55,0,0,1-9.55,9.54,1,1,0,0,1,0-2.09,7.45,7.45,0,0,0,7.46-7.45Zm7.85-.39a15.39,15.39,0,0,1-30.78,0c0-5.83,5.45-14,10.11-21,1.67-2.52,3.25-4.88,4.38-6.85a1,1,0,0,1,1.42-.39,1,1,0,0,1,.38.39h0c1.16,2,2.72,4.34,4.39,6.85,4.66,7,10.1,15.16,10.1,21Zm-6,9.4a13.3,13.3,0,0,0,3.89-9.4c0-5.2-5.26-13.1-9.75-19.85-1.28-1.92-2.51-3.77-3.54-5.44-1,1.69-2.27,3.51-3.56,5.44-4.49,6.76-9.75,14.65-9.75,19.85a13.3,13.3,0,0,0,22.71,9.4Z"/><path class="cls-1" d="M327.8,313.78a1,1,0,0,1,0,2.09,4.71,4.71,0,0,1-4.7-4.7,1,1,0,1,1,2.09,0,2.62,2.62,0,0,0,2.61,2.61Zm-.56-41.93h0a3.61,3.61,0,0,1,2.55,1.06h0a3.62,3.62,0,0,1,1.06,2.57v1.69h1.81a1,1,0,0,1,0,2.09h-1.81V283h1.81a1,1,0,0,1,0,2.09h-1.81v3.78h1.81a1,1,0,0,1,0,2.09h-1.81v3.78h1.81a1,1,0,0,1,0,2.09h-1.81v3.79h1.81a1,1,0,0,1,0,2.09h-1.81v1.87a8,8,0,1,1-7.25,0V275.48a3.61,3.61,0,0,1,1.06-2.57h0a3.66,3.66,0,0,1,2.57-1.06Zm0,2.09h0a1.52,1.52,0,0,0-1.09.45h0a1.52,1.52,0,0,0-.45,1.09v29.71h0a1,1,0,0,1-.66,1.09,5.94,5.94,0,0,0-3.77,5.55,6,6,0,1,0,8.16-5.55h0a1.05,1.05,0,0,1-.66-1v-2.51h-.66a1,1,0,0,1,0-2.09h.66v-3.79h-.66a1,1,0,0,1,0-2.09h.66V291h-.66a1,1,0,0,1,0-2.09h.66v-3.78h-.66a1,1,0,0,1,0-2.09h.66v-3.78h-.66a1,1,0,0,1,0-2.09h.66v-1.69a1.55,1.55,0,0,0-.46-1.09h0a1.48,1.48,0,0,0-1.07-.45Z"/><path class="cls-1" d="M437.53,282.07h7.91v-7.89a5.81,5.81,0,0,1,5.77-5.79h4.06a5.81,5.81,0,0,1,5.77,5.79v7.89H469a5.81,5.81,0,0,1,5.77,5.77v4.06a5.81,5.81,0,0,1-5.77,5.77H461v7.91a5.81,5.81,0,0,1-5.77,5.77h-4.06a5.81,5.81,0,0,1-5.77-5.77v-7.91h-7.91a5.81,5.81,0,0,1-5.77-5.77v-4.06a5.81,5.81,0,0,1,5.77-5.77Zm9,2.09h-9a3.72,3.72,0,0,0-3.68,3.68v4.06a3.71,3.71,0,0,0,3.68,3.68h9a1.05,1.05,0,0,1,1,1v9a3.71,3.71,0,0,0,3.68,3.68h4.06a3.71,3.71,0,0,0,3.68-3.68v-9a1.05,1.05,0,0,1,1-1h9a3.71,3.71,0,0,0,3.68-3.68v-4.06a3.72,3.72,0,0,0-3.68-3.68h-9a1,1,0,0,1-1-1v-8.94a3.71,3.71,0,0,0-3.68-3.7h-4.06a3.71,3.71,0,0,0-3.68,3.7v8.94a1,1,0,0,1-1,1Z"/><path class="cls-1" d="M384.83,69h5v-5a3.65,3.65,0,0,1,3.63-3.64H396a3.65,3.65,0,0,1,3.63,3.64v5h5a3.65,3.65,0,0,1,3.63,3.63v2.55a3.65,3.65,0,0,1-3.63,3.63h-5v5A3.65,3.65,0,0,1,396,87.41h-2.55a3.65,3.65,0,0,1-3.63-3.63v-5h-5a3.65,3.65,0,0,1-3.63-3.63V72.64A3.65,3.65,0,0,1,384.83,69Zm5.62,1.31h-5.62a2.33,2.33,0,0,0-2.31,2.31v2.55a2.33,2.33,0,0,0,2.31,2.31h5.62a.66.66,0,0,1,.66.66v5.62a2.33,2.33,0,0,0,2.31,2.31H396a2.33,2.33,0,0,0,2.31-2.31V78.16a.66.66,0,0,1,.66-.66h5.62a2.33,2.33,0,0,0,2.31-2.31V72.64a2.33,2.33,0,0,0-2.31-2.31h-5.62a.66.66,0,0,1-.66-.66V64.06A2.33,2.33,0,0,0,396,61.74h-2.55a2.33,2.33,0,0,0-2.31,2.32v5.62a.66.66,0,0,1-.66.66Z"/><path class="cls-1" d="M298.72,253.37V256h4.62a1,1,0,0,1,0,2.09H292a1,1,0,0,1,0-2.09h4.63v-2.59h-8a1,1,0,0,1,0-2.09h1.76v-22h0v-.49a1.07,1.07,0,0,1,.29-.74h0l6-6.17V209.53a1,1,0,1,1,2.09,0v12.34l6,6.17a1.06,1.06,0,0,1,.29.78v.45h0v21.91a.27.27,0,0,1,0,.1h1.76a1,1,0,0,1,0,2.09h-8Zm.68-4a1,1,0,0,1,0-2.09h3.5V244h-3.5a1,1,0,0,1,0-2.09h3.5v-3.28h-3.5a1,1,0,0,1,0-2.09h3.5v-3.26h-3.5a1,1,0,0,1,0-2.09h3.5v-1.87h0v-.07l-5.23-5.4-5.23,5.4v.07h0v21.91a.11.11,0,0,0,0,.06h0l.06,0h10.28l.07,0s0,0,0-.07v-1.86Z"/><path class="cls-1" d="M406.66,287.78a5.09,5.09,0,1,1-3.5,8.79,11.63,11.63,0,0,1-4,.8,6.9,6.9,0,0,1-5.86-3.12,15.23,15.23,0,0,1-2.3-6.57,34.05,34.05,0,0,1,.15-9.76A12,12,0,0,1,380.44,267a1.09,1.09,0,0,1,0-.31V266h0v-10.7a2.67,2.67,0,0,1,.14-3.65,2.69,2.69,0,0,1,3.79,0,2.69,2.69,0,0,1,0,3.79,2.68,2.68,0,0,1-1.84.78V266h0v.5c0,.06,0,.1,0,.14a9.73,9.73,0,0,0,3.1,6.57,9.87,9.87,0,0,0,16.58-6.5.92.92,0,0,1,0-.21V266h0v-9.81a2.68,2.68,0,1,1,2.09-.92V266h0v.68a1.09,1.09,0,0,1,0,.31,12,12,0,0,1-11,10.92,32,32,0,0,0-.2,9.43A13.23,13.23,0,0,0,395,293a4.91,4.91,0,0,0,4.16,2.23,8.63,8.63,0,0,0,2.83-.49,5.13,5.13,0,0,1-.38-1.91,5.1,5.1,0,0,1,5.09-5.09Zm-23.81-34.65a.59.59,0,0,0-.42-.17.55.55,0,0,0-.42.17.57.57,0,0,0,0,.84.6.6,0,0,0,.42.17.66.66,0,0,0,.42-.17.61.61,0,0,0,0-.84Zm19.85,0a.59.59,0,0,0-.84.84.59.59,0,0,0,.84-.84Zm1.38,41.26a1,1,0,0,1,.43.5.19.19,0,0,1,0,.11,3,3,0,0,0,5.1-2.13,3,3,0,1,0-5.58,1.52Z"/><circle class="cls-1" cx="399.16" cy="234.36" r="2.54"/><circle class="cls-1" cx="323.25" cy="258.15" r="2.54"/><circle class="cls-1" cx="273.58" cy="196.23" r="2.54"/><circle class="cls-1" cx="307.86" cy="111.23" r="2.54"/><circle class="cls-1" cx="283.73" cy="89.19" r="2.54"/><circle class="cls-1" cx="439.04" cy="151.46" r="2.54"/><circle class="cls-1" cx="436.59" cy="107.73" r="2.54"/><circle class="cls-1" cx="425.75" cy="264.45" r="2.54"/><circle class="cls-1" cx="362.78" cy="284.04" r="2.54"/><circle class="cls-1" cx="229.85" cy="102.13" r="2.54"/><circle class="cls-1" cx="259.94" cy="269.34" r="2.54"/><circle class="cls-1" cx="226.01" cy="246.26" r="2.54"/><circle class="cls-1" cx="395.67" cy="191.34" r="2.54"/><circle class="cls-1" cx="392.17" cy="105.28" r="2.54"/><circle class="cls-1" cx="328.85" cy="205.33" r="2.54"/><circle class="cls-1" cx="342.49" cy="303.28" r="2.54"/><circle class="cls-1" cx="363.13" cy="172.45" r="2.54"/><circle class="cls-1" cx="280.93" cy="164.05" r="2.54"/><circle class="cls-1" cx="292.47" cy="310.27" r="2.54"/><circle class="cls-1" cx="241.75" cy="146.21" r="2.54"/><path class="cls-1" d="M115.2,51.66a1,1,0,0,1,0-2.09h9.35a1,1,0,1,1,0,2.09Zm11.47-22.37a1,1,0,1,1,2.09,0v4.63h4.62a1,1,0,0,1,0,2.09h-4.62v4.63a1,1,0,1,1-2.09,0V36H122a1,1,0,0,1,0-2.09h4.63ZM107,42.34a1,1,0,1,1,2.09,0V55.21h37.28v-5a1,1,0,1,1,2.09,0V63.22a1,1,0,1,1-2.09,0V57.31H109.07v5.91a1,1,0,1,1-2.09,0V42.34Z"/><path class="cls-1" d="M52.42,63.89a16.1,16.1,0,0,1-.08,31.63,1,1,0,0,1-1.21-.84.8.8,0,0,1,0-.18h0V64.9a1,1,0,0,1,1-1l.27,0Zm7.73,6.88a13.94,13.94,0,0,0-6.95-4.55v27a14,14,0,0,0,6.95-22.42ZM46.29,95.51a16.11,16.11,0,0,1,.08-31.63,1,1,0,0,1,1.21.84.94.94,0,0,1,0,.2h0V94.5a1.05,1.05,0,0,1-1,1,.9.9,0,0,1-.28,0Zm-7.73-6.88a14,14,0,0,0,7,4.55v-27a14,14,0,0,0-7,22.42Z"/><path class="cls-1" d="M95.44,96.87l29.31,10.29a4.5,4.5,0,0,1,2.57,2.31h0a4.5,4.5,0,0,1,.19,3.45L120.8,132a4.5,4.5,0,0,1-2.31,2.57h0a4.45,4.45,0,0,1-3.44.2L85.73,124.52a4.5,4.5,0,0,1-2.57-2.31h0a4.5,4.5,0,0,1-.19-3.45l6.71-19.12A4.5,4.5,0,0,1,92,97.06h0a4.44,4.44,0,0,1,3.44-.2Zm28.61,12.27L94.75,98.84a2.4,2.4,0,0,0-1.85.1h0a2.38,2.38,0,0,0-1.24,1.38l-6.71,19.12a2.38,2.38,0,0,0,.1,1.85h0a2.4,2.4,0,0,0,1.38,1.24l29.31,10.29a2.4,2.4,0,0,0,1.85-.1h0a2.38,2.38,0,0,0,1.24-1.38l6.71-19.12a2.38,2.38,0,0,0-.1-1.85h0a2.4,2.4,0,0,0-1.38-1.24Zm-15.6-2.43a9.86,9.86,0,1,1-7.55.41,9.84,9.84,0,0,1,7.55-.41Zm3.74,5.94a7.8,7.8,0,1,0,.32,6,7.74,7.74,0,0,0-.32-6Zm-6.43-1.43a1,1,0,0,1,2,.69l-1.22,3.47,3.46,1.22a1,1,0,0,1-.69,2l-3.46-1.22-1.22,3.46a1,1,0,1,1-2-.69l1.22-3.46-3.47-1.22a1,1,0,0,1,.69-2l3.47,1.22Zm2-21.13,11.59,4.07a3.38,3.38,0,0,1,2.06,4.29l-1.81,5.16a1,1,0,0,1-1.33.64L115,103.09a1,1,0,0,1-.64-1.33l1-3a.33.33,0,0,0-.2-.41L108.38,96a.33.33,0,0,0-.24,0h0a.33.33,0,0,0-.17.18l-1,3a1,1,0,0,1-1.33.64l-3.28-1.15a1,1,0,0,1-.64-1.33l1.81-5.16a3.38,3.38,0,0,1,4.29-2.06Zm10.9,6-11.59-4.07a1.29,1.29,0,0,0-1.62.78L104,97l1.3.46.7-2a2.4,2.4,0,0,1,1.23-1.37h0a2.45,2.45,0,0,1,1.84-.11l6.83,2.4a2.43,2.43,0,0,1,1.48,3.08l-.7,2,1.3.46,1.46-4.17a1.29,1.29,0,0,0-.78-1.62Z"/><path class="cls-1" d="M128,179.53a1.74,1.74,0,0,1-1.27-.53,1.8,1.8,0,0,1-.53-1.27,1.83,1.83,0,0,1,.53-1.28,1.8,1.8,0,0,1,2.55,0,1.83,1.83,0,0,1,.53,1.28,1.8,1.8,0,0,1-.53,1.27,1.75,1.75,0,0,1-1.28.53Zm30.77-30.76a1.81,1.81,0,1,0-.53,1.27,1.8,1.8,0,0,0,.53-1.27Zm-1,6.83a1.85,1.85,0,0,0-.53-1.28,1.8,1.8,0,0,0-2.55,0,1.85,1.85,0,0,0-.53,1.28,1.8,1.8,0,0,0,.53,1.27,1.8,1.8,0,0,0,2.55,0,1.8,1.8,0,0,0,.53-1.27Zm-5.86-5.86a1.8,1.8,0,0,0-.53-1.28h0a1.8,1.8,0,0,0-1.27-.53,1.82,1.82,0,0,0-1.19.45l-.08.08h0a1.8,1.8,0,0,0,0,2.55h0a1.79,1.79,0,0,0,2.45.08l.1-.08h0a1.8,1.8,0,0,0,.53-1.27Zm-8.77,6.42a1,1,0,0,1,1.48-1.48l6.4,6.4a1,1,0,1,1-1.48,1.48ZM159.43,143l3.31,3.31a6.77,6.77,0,0,1,0,9.54l-27.64,27.65a6.73,6.73,0,0,1-9.54,0l-3.31-3.31a6.73,6.73,0,0,1-2-4.77h0a6.73,6.73,0,0,1,2-4.77L149.89,143h0a6.77,6.77,0,0,1,9.54,0Zm1.83,4.78L158,144.48h0a4.68,4.68,0,0,0-6.58,0h0l-27.64,27.65a4.66,4.66,0,0,0-1.37,3.29h0a4.62,4.62,0,0,0,1.35,3.29L127,182a4.65,4.65,0,0,0,6.58,0l27.64-27.65a4.68,4.68,0,0,0,0-6.58Zm-27.32,17.63a1.07,1.07,0,0,1,0-1.49,1.05,1.05,0,0,1,1.48,0l6.4,6.4a1,1,0,0,1-1.48,1.48Zm.92,13.14a1.85,1.85,0,0,1-1.28-.53,1.8,1.8,0,0,1,0-2.55,1.85,1.85,0,0,1,1.28-.53,1.8,1.8,0,0,1,1.27.53,1.8,1.8,0,0,1,0,2.55,1.8,1.8,0,0,1-1.27.53ZM129,172.7a1.8,1.8,0,0,1-1.27-.53h0a1.85,1.85,0,0,1-.53-1.28,1.82,1.82,0,0,1,.45-1.19l.08-.08h0a1.8,1.8,0,0,1,2.55,0h0a1.79,1.79,0,0,1,.08,2.45l-.08.1h0a1.8,1.8,0,0,1-1.28.53Z"/><path class="cls-1" d="M16.76,0a10.62,10.62,0,0,1,7.36,2.66,10.47,10.47,0,0,1,2.4,3.39,9.8,9.8,0,0,1,2.37-3.42A10.71,10.71,0,0,1,36.4,0a10.46,10.46,0,0,1,7.71,3.47,12.33,12.33,0,0,1,3.15,8.3c0,2.48-1.44,5.31-3.57,8.19a.91.91,0,0,1-.22.29c-3.36,4.46-8.34,9-12.19,12.53-1.6,1.45-3,2.72-4,3.7a1,1,0,0,1-1.48,0h0c-1.07-1.07-2.55-2.43-4.2-3.93C16.51,27.81,9.7,21.58,7,16.05a1.25,1.25,0,0,1-.17-.33,9.65,9.65,0,0,1-1-3.95A12.26,12.26,0,0,1,9,3.47,10.44,10.44,0,0,1,16.76,0Zm6,4.21a8.58,8.58,0,0,0-6-2.12,8.34,8.34,0,0,0-6.18,2.79A10.18,10.18,0,0,0,8,11.77a7.09,7.09,0,0,0,.57,2.64H17.2l2.34-5.75a1,1,0,0,1,1.37-.57,1,1,0,0,1,.6.63L26,21.1,29,14.41a1,1,0,0,1,1.37-.54,1,1,0,0,1,.56.59l1.69,4h9.67C44,16,45.17,13.71,45.17,11.77a10.12,10.12,0,0,0-2.61-6.89A8.33,8.33,0,0,0,36.4,2.09a8.69,8.69,0,0,0-6.1,2.08,9.34,9.34,0,0,0-2.69,6.05h0a1,1,0,0,1-2.06,0,9.81,9.81,0,0,0-2.83-6Zm7.16,27a119.43,119.43,0,0,0,10.74-10.7h-8.7a1,1,0,0,1-1-.64l-1-2.43-3,6.81a1,1,0,0,1-.61.61A1,1,0,0,1,25,24.26L20.47,12l-1.58,3.84a1,1,0,0,1-1,.71H9.6C12.45,21.26,18.45,26.77,23.06,31c1.31,1.21,2.51,2.32,3.51,3.29.92-.89,2.05-1.92,3.29-3.05ZM21.51,8.72a1.13,1.13,0,0,1,0,.74"/><path class="cls-1" d="M149.18,252.87a7.16,7.16,0,0,1,4.24,3.15,7.06,7.06,0,0,1,.89,2.65,6.61,6.61,0,0,1,2.19-1.75,7.22,7.22,0,0,1,5.36-.24,7.05,7.05,0,0,1,4.3,3.74,8.31,8.31,0,0,1,.42,6c-.48,1.6-2,3.15-3.9,4.59a.61.61,0,0,1-.2.15,68.66,68.66,0,0,1-10.3,5.72c-1.32.62-2.46,1.17-3.28,1.62a.7.7,0,0,1-1-.28h0c-.48-.9-1.18-2.06-1.95-3.36-2.4-4-5.58-9.4-6.22-13.48a.85.85,0,0,1,0-.25,6.51,6.51,0,0,1,.14-2.74,8.26,8.26,0,0,1,3.65-4.75,7,7,0,0,1,5.65-.74Zm3,3.88a5.78,5.78,0,0,0-3.43-2.53,5.62,5.62,0,0,0-4.53.6,6.86,6.86,0,0,0-3,3.94,4.78,4.78,0,0,0-.14,1.81l5.58,1.68L149.3,259a.71.71,0,0,1,1-.1.69.69,0,0,1,.27.52l.52,8.88,3.19-3.75a.69.69,0,0,1,1-.09.7.7,0,0,1,.25.49l.31,2.9,6.24,1.88a8.45,8.45,0,0,0,3.18-3.74,6.83,6.83,0,0,0-.35-5,5.62,5.62,0,0,0-3.44-3,5.86,5.86,0,0,0-4.34.16,6.3,6.3,0,0,0-2.91,3.39h0a.7.7,0,0,1-1.34-.38,6.62,6.62,0,0,0-.65-4.45Zm-.63,18.83a80.52,80.52,0,0,0,9-4.82L155,269.07h0a.7.7,0,0,1-.5-.6l-.19-1.77L151,270.52a.69.69,0,0,1-.52.28.7.7,0,0,1-.74-.67l-.53-8.82-1.76,2.17a.7.7,0,0,1-.77.27l-5.37-1.61c.91,3.62,3.71,8.35,5.87,12,.61,1,1.17,2,1.63,2.81.77-.4,1.7-.84,2.72-1.33Zm-1-16.16a.76.76,0,0,1-.16.47"/><path class="cls-1" d="M39,148.7a1,1,0,1,1,1.79-1.09,5.2,5.2,0,0,1,.62,4.37A5.7,5.7,0,0,1,39,155.1a1,1,0,0,1-1.09-1.79,3.56,3.56,0,0,0,1.58-1.94A3.16,3.16,0,0,0,39,148.7Zm5.55-1.24a8.08,8.08,0,0,1-.07,7.69l0,.07v0a9.5,9.5,0,0,1-2.59,2.91l0,0,0,0,0,0,0,0h0l0,0,0,0-.06,0h0l0,0,0,0v0l0,0h0l0,0,0,0h0l0,0h0l-.08.05-.17.1h0l-.14.09h0l-.11.07a8.35,8.35,0,0,1-10.91-2.18h0l-.08-.11-.06-.08-.06-.1a1.05,1.05,0,0,1-.12-.17l0-.06a.92.92,0,0,1-.11-.16l0,0-.13-.21h0l0,0-6.14-10.09-6.15-10.1v0a8.19,8.19,0,0,1,.32-9.57h0a9.63,9.63,0,0,1,6.09-3.71.15.15,0,0,1,.07,0,8.23,8.23,0,0,1,8.58,4.12v0L38,136.54l6.14,10.09v0h0l.09.15h0l.08.16h0l.09.14,0,.07,0,.07,0,.07h0Zm-1.94,6.75A6.18,6.18,0,0,0,42.5,148h0l-.06-.13v0l-.07-.12h0l-5.6-9.2-11.49,7,5.6,9.2h0l.1.17v0l.09.15h0a6.41,6.41,0,0,0,9,1.81l0,0h0l.06,0h0l0,0h0l0,0h0l0,0h0l0,0h0a.48.48,0,0,0,.11-.08h0a7.15,7.15,0,0,0,2.09-2.31Zm-7-17.48-5.6-9.2h0a6.21,6.21,0,0,0-6.49-3.17h0a7.61,7.61,0,0,0-4.77,2.9h0a6.19,6.19,0,0,0-.18,7.24h0l5.6,9.2Z"/><path class="cls-1" d="M237.06,35a1,1,0,1,1,1.79-1.09,5.2,5.2,0,0,1,.62,4.37A5.7,5.7,0,0,1,237,41.36a1,1,0,0,1-1.09-1.79,3.56,3.56,0,0,0,1.58-1.94,3.16,3.16,0,0,0-.42-2.67Zm5.55-1.24a8.08,8.08,0,0,1-.07,7.69l0,.07v0a9.5,9.5,0,0,1-2.59,2.91l0,0,0,0,0,0,0,0h0l0,0,0,0-.06,0h0l0,0,0,0v0l0,0h0l0,0,0,0h0l0,0h0l-.08.05L239,45h0l-.14.09h0l-.11.07A8.35,8.35,0,0,1,227.75,43h0l-.08-.11-.06-.08-.06-.1a1.05,1.05,0,0,1-.12-.17l0-.06a.92.92,0,0,1-.11-.16l0,0-.13-.21h0l0,0L221,32l-6.15-10.1v0a8.19,8.19,0,0,1,.32-9.57h0a9.63,9.63,0,0,1,6.09-3.71.15.15,0,0,1,.07,0,8.23,8.23,0,0,1,8.58,4.12v0L236,22.8l6.14,10.09v0h0l.09.15h0l.08.16h0l.09.14,0,.07,0,.07,0,.07h0Zm-1.94,6.75a6.18,6.18,0,0,0-.16-6.22h0l-.06-.13v0l-.07-.12h0l-5.6-9.2-11.49,7,5.6,9.2h0l.1.17v0l.09.15h0a6.41,6.41,0,0,0,9,1.81l0,0h0l.06,0h0l0,0h0l0,0h0l0,0h0l0,0h0a.48.48,0,0,0,.11-.08h0a7.15,7.15,0,0,0,2.09-2.31Zm-7-17.48-5.6-9.2h0a6.21,6.21,0,0,0-6.49-3.17h0a7.61,7.61,0,0,0-4.77,2.9h0a6.19,6.19,0,0,0-.18,7.24h0l5.6,9.2Z"/><path class="cls-1" d="M167.77,75.84v0c0-1,1-1.88,2.71-2.39a20.34,20.34,0,0,1,10,0c1.67.5,2.71,1.35,2.71,2.41V80a1.79,1.79,0,0,1-.31,1A13.71,13.71,0,0,1,185.5,82c1.48.85,2.33,1.94,2.36,3.18v21.54h0v8.36c0,1.66-1.52,3.05-4,4a27.32,27.32,0,0,1-16.72,0c-2.48-.93-4-2.33-4-4v-8.36h0V85.24c0-1.26.88-2.34,2.36-3.19A13.71,13.71,0,0,1,168.08,81a1.66,1.66,0,0,1-.31-.93v-4.2ZM181,82.63v1.26h0a.85.85,0,0,1,0,.21c-.11.8-.88,1.39-2.05,1.74a14,14,0,0,1-6.9,0c-1.17-.35-1.94-.95-2.05-1.74a.84.84,0,0,1,0-.21h0V82.63a12,12,0,0,0-3.43,1.23c-.84.47-1.31,1-1.31,1.41v4.78h0c.07.67,1.06,1.37,2.65,2a25.38,25.38,0,0,0,15.25,0c1.59-.6,2.59-1.3,2.65-2v-4.8c0-.45-.47-.93-1.31-1.41A12,12,0,0,0,181,82.63ZM165.22,107v0h0v0c0,.68,1,1.41,2.64,2a25.47,25.47,0,0,0,15.27,0c1.63-.61,2.64-1.34,2.64-2V107a1.23,1.23,0,0,1,0-.24,1.38,1.38,0,0,1,0-.24V93a10.6,10.6,0,0,1-1.91.93,27.32,27.32,0,0,1-16.72,0,10.6,10.6,0,0,1-1.91-.93v13.49a1.3,1.3,0,0,1,0,.4.11.11,0,0,0,0,.06Zm0,3.11v4.52a1.3,1.3,0,0,1,0,.4.22.22,0,0,0,0,.06h0v0c0,.7,1,1.42,2.64,2a25.47,25.47,0,0,0,15.27,0c1.63-.61,2.64-1.34,2.64-2v0h0a1.23,1.23,0,0,1,0-.24,1.38,1.38,0,0,1,0-.24v-4.51a10.6,10.6,0,0,1-1.91.92,27.32,27.32,0,0,1-16.72,0,10.6,10.6,0,0,1-1.91-.92Zm5.62-29.77a1.15,1.15,0,0,1,.38,0l.1,0a13.83,13.83,0,0,0,1.62.32h.24c.42,0,.86.08,1.34.1h2c.47,0,.92-.06,1.34-.1h.31a13.76,13.76,0,0,0,1.58-.31l.07,0a1.15,1.15,0,0,1,.38,0,4.45,4.45,0,0,0,1-.35h0V78.06l-.61.21a20.34,20.34,0,0,1-10,0l-.61-.21V80a4.6,4.6,0,0,0,1,.35Zm8.09,2.43a21.33,21.33,0,0,1-6.88,0v1.12h0c0,.1.24-.15.57-.06a12,12,0,0,0,5.73,0c.33-.1.54.14.57.07h0V82.77Zm-5.06,14.87h3.25a1,1,0,0,1,1,1V100h1.34a1.05,1.05,0,0,1,1,1v3.25a1,1,0,0,1-1,1h-1.34v1.34a1,1,0,0,1-1,1h-3.25a1,1,0,0,1-1-1v-1.34h-1.34a1,1,0,0,1-1-1v-3.25a1.05,1.05,0,0,1,1-1h1.34V98.68a1,1,0,0,1,1-1Zm2.2,2.09h-1.16v1.34a1,1,0,0,1-1,1h-1.34v1.16h1.34a1.05,1.05,0,0,1,1,1v1.34h1.16v-1.34a1.05,1.05,0,0,1,1-1h1.34v-1.16h-1.34a1,1,0,0,1-1-1Zm5-23.88h0a10,10,0,0,0-1.21-.4,18.24,18.24,0,0,0-8.84,0,8.32,8.32,0,0,0-1.2.4,6,6,0,0,0,1.2.42,18.24,18.24,0,0,0,8.84,0,10,10,0,0,0,1.21-.4Z"/><path class="cls-1" d="M216.61,150.61a1,1,0,1,1,2.09,0,9.55,9.55,0,0,1-9.55,9.54,1,1,0,0,1,0-2.09,7.45,7.45,0,0,0,7.46-7.45Zm7.85-.39a15.39,15.39,0,0,1-30.78,0c0-5.83,5.45-14,10.11-21,1.67-2.52,3.25-4.88,4.38-6.85a1,1,0,0,1,1.42-.39,1,1,0,0,1,.38.39h0c1.16,2,2.72,4.34,4.39,6.85,4.66,7,10.1,15.16,10.1,21Zm-6,9.4a13.3,13.3,0,0,0,3.89-9.4c0-5.2-5.26-13.1-9.75-19.85-1.28-1.92-2.51-3.77-3.54-5.44-1,1.69-2.27,3.51-3.56,5.44-4.49,6.76-9.75,14.65-9.75,19.85a13.3,13.3,0,0,0,22.71,9.4Z"/><path class="cls-1" d="M107.54,255.45a1,1,0,0,1,0,2.09,4.71,4.71,0,0,1-4.7-4.7,1,1,0,1,1,2.09,0,2.62,2.62,0,0,0,2.61,2.61ZM107,213.52h0a3.61,3.61,0,0,1,2.55,1.06h0a3.62,3.62,0,0,1,1.06,2.57v1.69h1.81a1,1,0,0,1,0,2.09h-1.81v3.78h1.81a1,1,0,0,1,0,2.09h-1.81v3.78h1.81a1,1,0,0,1,0,2.09h-1.81v3.78h1.81a1,1,0,0,1,0,2.09h-1.81v3.79h1.81a1,1,0,0,1,0,2.09h-1.81v1.87a8,8,0,1,1-7.25,0V217.15a3.61,3.61,0,0,1,1.06-2.57h0a3.66,3.66,0,0,1,2.57-1.06Zm0,2.09h0a1.52,1.52,0,0,0-1.09.45h0a1.52,1.52,0,0,0-.45,1.09v29.71h0a1,1,0,0,1-.66,1.09A5.94,5.94,0,0,0,101,253.5a6,6,0,1,0,8.16-5.55h0a1.05,1.05,0,0,1-.66-1v-2.51h-.66a1,1,0,0,1,0-2.09h.66v-3.79h-.66a1,1,0,0,1,0-2.09h.66v-3.78h-.66a1,1,0,0,1,0-2.09h.66V226.8h-.66a1,1,0,0,1,0-2.09h.66v-3.78h-.66a1,1,0,0,1,0-2.09h.66v-1.69a1.55,1.55,0,0,0-.46-1.09h0a1.48,1.48,0,0,0-1.07-.45Z"/><path class="cls-1" d="M5.77,222.72h7.91v-7.89A5.81,5.81,0,0,1,19.46,209h4.06a5.81,5.81,0,0,1,5.77,5.79v7.89H37.2A5.81,5.81,0,0,1,43,228.5v4.06a5.81,5.81,0,0,1-5.77,5.77H29.29v7.91A5.81,5.81,0,0,1,23.52,252H19.46a5.81,5.81,0,0,1-5.77-5.77v-7.91H5.77A5.81,5.81,0,0,1,0,232.56V228.5a5.81,5.81,0,0,1,5.77-5.77Zm9,2.09h-9a3.72,3.72,0,0,0-3.68,3.68v4.06a3.71,3.71,0,0,0,3.68,3.68h9a1.05,1.05,0,0,1,1,1v9a3.71,3.71,0,0,0,3.68,3.68h4.06a3.71,3.71,0,0,0,3.68-3.68v-9a1.05,1.05,0,0,1,1-1h9a3.71,3.71,0,0,0,3.68-3.68V228.5a3.72,3.72,0,0,0-3.68-3.68h-9a1,1,0,0,1-1-1v-8.94a3.71,3.71,0,0,0-3.68-3.7H19.46a3.71,3.71,0,0,0-3.68,3.7v8.94a1,1,0,0,1-1,1Z"/><path class="cls-1" d="M164.58,10.69h5v-5a3.65,3.65,0,0,1,3.63-3.64h2.55a3.65,3.65,0,0,1,3.63,3.64v5h5a3.65,3.65,0,0,1,3.63,3.63v2.55a3.65,3.65,0,0,1-3.63,3.63h-5v5a3.65,3.65,0,0,1-3.63,3.63h-2.55a3.65,3.65,0,0,1-3.63-3.63v-5h-5A3.65,3.65,0,0,1,161,16.86V14.31a3.65,3.65,0,0,1,3.63-3.63ZM170.2,12h-5.62a2.33,2.33,0,0,0-2.31,2.31v2.55a2.33,2.33,0,0,0,2.31,2.31h5.62a.66.66,0,0,1,.66.66v5.62a2.33,2.33,0,0,0,2.31,2.31h2.55A2.33,2.33,0,0,0,178,25.46V19.83a.66.66,0,0,1,.66-.66h5.62a2.33,2.33,0,0,0,2.31-2.31V14.31A2.33,2.33,0,0,0,184.32,12h-5.62a.66.66,0,0,1-.66-.66V5.73a2.33,2.33,0,0,0-2.31-2.32h-2.55a2.33,2.33,0,0,0-2.31,2.32v5.62a.66.66,0,0,1-.66.66Z"/><path class="cls-1" d="M78.47,195v2.59h4.62a1,1,0,0,1,0,2.09H71.74a1,1,0,0,1,0-2.09h4.63V195h-8a1,1,0,0,1,0-2.09H70.1v-22h0v-.49a1.07,1.07,0,0,1,.29-.74h0l6-6.17V151.2a1,1,0,1,1,2.09,0v12.34l6,6.17a1.06,1.06,0,0,1,.29.78v.45h0v21.91a.27.27,0,0,1,0,.1h1.76a1,1,0,0,1,0,2.09h-8Zm.68-4a1,1,0,0,1,0-2.09h3.5v-3.28h-3.5a1,1,0,0,1,0-2.09h3.5v-3.28h-3.5a1,1,0,0,1,0-2.09h3.5V174.9h-3.5a1,1,0,0,1,0-2.09h3.5v-1.87h0v-.07l-5.23-5.4-5.23,5.4v.07h0v21.91a.11.11,0,0,0,0,.06h0l.06,0H82.55l.07,0s0,0,0-.07V191Z"/><path class="cls-1" d="M186.41,229.45a5.09,5.09,0,1,1-3.5,8.79,11.63,11.63,0,0,1-4,.8,6.9,6.9,0,0,1-5.86-3.12,15.23,15.23,0,0,1-2.3-6.57,34.05,34.05,0,0,1,.15-9.76,12,12,0,0,1-10.67-10.88,1.09,1.09,0,0,1,0-.31v-.71h0V197a2.67,2.67,0,0,1,.14-3.65,2.69,2.69,0,0,1,3.79,0,2.69,2.69,0,0,1,0,3.79,2.68,2.68,0,0,1-1.84.78v9.78h0v.5c0,.06,0,.1,0,.14a9.73,9.73,0,0,0,3.1,6.57,9.87,9.87,0,0,0,16.58-6.5.92.92,0,0,1,0-.21v-.47h0V197.9a2.68,2.68,0,1,1,2.09-.92V207.7h0v.68a1.09,1.09,0,0,1,0,.31,12,12,0,0,1-11,10.92,32,32,0,0,0-.2,9.43,13.23,13.23,0,0,0,1.94,5.66,4.91,4.91,0,0,0,4.16,2.23,8.63,8.63,0,0,0,2.83-.49,5.13,5.13,0,0,1-.38-1.91,5.1,5.1,0,0,1,5.09-5.09ZM162.6,194.8a.59.59,0,0,0-.42-.17.55.55,0,0,0-.42.17.57.57,0,0,0,0,.84.6.6,0,0,0,.42.17.66.66,0,0,0,.42-.17.61.61,0,0,0,0-.84Zm19.85,0a.59.59,0,0,0-.84.84.59.59,0,0,0,.84-.84Zm1.38,41.26a1,1,0,0,1,.43.5.19.19,0,0,1,0,.11,3,3,0,0,0,5.1-2.13,3,3,0,1,0-5.58,1.52Z"/><circle class="cls-1" cx="178.91" cy="176.03" r="2.54"/><circle class="cls-1" cx="103" cy="199.82" r="2.54"/><circle class="cls-1" cx="53.32" cy="137.9" r="2.54"/><circle class="cls-1" cx="87.61" cy="52.9" r="2.54"/><circle class="cls-1" cx="63.47" cy="30.86" r="2.54"/><circle class="cls-1" cx="218.79" cy="93.13" r="2.54"/><circle class="cls-1" cx="216.34" cy="49.4" r="2.54"/><circle class="cls-1" cx="205.49" cy="206.12" r="2.54"/><circle class="cls-1" cx="142.53" cy="225.71" r="2.54"/><circle class="cls-1" cx="9.6" cy="43.8" r="2.54"/><circle class="cls-1" cx="39.68" cy="211.01" r="2.54"/><circle class="cls-1" cx="5.75" cy="187.93" r="2.54"/><circle class="cls-1" cx="175.41" cy="133.01" r="2.54"/><circle class="cls-1" cx="171.91" cy="46.95" r="2.54"/><circle class="cls-1" cx="108.6" cy="147" r="2.54"/><circle class="cls-1" cx="122.24" cy="244.95" r="2.54"/><circle class="cls-1" cx="142.88" cy="114.12" r="2.54"/><circle class="cls-1" cx="60.67" cy="105.72" r="2.54"/><circle class="cls-1" cx="72.21" cy="251.94" r="2.54"/><circle class="cls-1" cx="21.49" cy="87.88" r="2.54"/></svg>