<svg id="Capa_1" data-name="Capa 1" xmlns="http://www.w3.org/2000/svg" xmlns:xlink="http://www.w3.org/1999/xlink" viewBox="0 0 229.13 381.64"><defs><style>.cls-1{fill:none;}.cls-2{clip-path:url(#clip-path);}.cls-3{fill:#dfe7f2;}</style><clipPath id="clip-path"><rect class="cls-1" width="229.13" height="381.64"/></clipPath></defs><title>botica-textura 1 cortada</title><g class="cls-2"><path class="cls-3" d="M201.61,239.75a15.54,15.54,0,0,1-.08,30.54,1,1,0,0,1-1.17-.81.77.77,0,0,1,0-.18h0V240.73a1,1,0,0,1,1-1l.26,0Zm7.46,6.64a13.46,13.46,0,0,0-6.71-4.39v26a13.53,13.53,0,0,0,6.71-21.64ZM195.7,270.27a15.55,15.55,0,0,1,.08-30.54,1,1,0,0,1,1.17.81.91.91,0,0,1,0,.19h0V269.3a1,1,0,0,1-1,1,.87.87,0,0,1-.27,0Zm-7.46-6.64A13.47,13.47,0,0,0,195,268V242a13.52,13.52,0,0,0-6.72,21.64Z"/><path class="cls-3" d="M167.19,178.07a10.26,10.26,0,0,1,7.11,2.57,10.11,10.11,0,0,1,2.32,3.27,9.46,9.46,0,0,1,2.29-3.3,10.34,10.34,0,0,1,7.24-2.55,10.1,10.1,0,0,1,7.45,3.35,11.9,11.9,0,0,1,3,8c0,2.4-1.39,5.13-3.45,7.9a.88.88,0,0,1-.22.28c-3.25,4.31-8.05,8.69-11.77,12.09-1.55,1.4-2.9,2.63-3.82,3.57a1,1,0,0,1-1.43,0h0c-1-1-2.46-2.34-4.05-3.8-5-4.56-11.53-10.58-14.1-15.92a1.21,1.21,0,0,1-.16-.32,9.32,9.32,0,0,1-.94-3.81,11.83,11.83,0,0,1,3-8,10.07,10.07,0,0,1,7.45-3.35Zm5.75,4.07a8.28,8.28,0,0,0-5.75-2,8,8,0,0,0-6,2.69,9.83,9.83,0,0,0-2.5,6.65,6.84,6.84,0,0,0,.55,2.55h8.35l2.26-5.55a1,1,0,0,1,1.32-.55,1,1,0,0,1,.58.61l4.38,12L179,192a1,1,0,0,1,1.32-.53,1,1,0,0,1,.54.57l1.63,3.85h9.33c1.7-2.33,2.81-4.56,2.81-6.44a9.77,9.77,0,0,0-2.52-6.65,8,8,0,0,0-6-2.69,8.39,8.39,0,0,0-5.88,2,9,9,0,0,0-2.6,5.84h0a1,1,0,0,1-2,0,9.47,9.47,0,0,0-2.73-5.83Zm6.91,26.08a115.3,115.3,0,0,0,10.37-10.33h-8.4a1,1,0,0,1-.93-.62l-1-2.34L177,201.5a1,1,0,0,1-.59.59,1,1,0,0,1-1.29-.61l-4.36-11.88-1.52,3.7a1,1,0,0,1-.94.69h-8c2.75,4.59,8.54,9.91,13,14,1.27,1.17,2.42,2.24,3.39,3.18.89-.86,2-1.86,3.18-2.95Zm-8.07-21.73a1.09,1.09,0,0,1,0,.71"/><path class="cls-3" d="M188.7,321.63a1,1,0,1,1,1.73-1.05,5,5,0,0,1,.6,4.22,5.5,5.5,0,0,1-2.4,3,1,1,0,0,1-1.05-1.73,3.44,3.44,0,0,0,1.52-1.87,3,3,0,0,0-.4-2.58Zm5.36-1.2a7.8,7.8,0,0,1-.07,7.42l0,.07v0a9.17,9.17,0,0,1-2.5,2.81l0,0,0,0,0,0,0,0h0l0,0,0,0-.06,0h0l0,0,0,0v0l0,0h0l0,0,0,0h0l0,0h0l-.08,0-.16.1h0l-.14.08h0l-.1.06a8.06,8.06,0,0,1-10.53-2.1h0l-.08-.11-.06-.07-.06-.09a1,1,0,0,1-.12-.17l0-.06a.89.89,0,0,1-.11-.15l0,0-.13-.21h0l0,0-5.93-9.74L167.21,309v0a7.91,7.91,0,0,1,.31-9.23h0a9.3,9.3,0,0,1,5.88-3.58.14.14,0,0,1,.07,0,7.94,7.94,0,0,1,8.28,4v0l5.94,9.75,5.93,9.74v0h0l.09.15h0l.08.16h0l.08.14,0,.06,0,.07,0,.07h0Zm-1.87,6.51a6,6,0,0,0-.16-6h0l-.06-.12v0l-.07-.12h0l-5.4-8.88-11.09,6.75,5.4,8.88h0l.1.16v0l.09.15h0a6.18,6.18,0,0,0,8.66,1.74l0,0h0l.06,0h0l0,0h0l0,0h0l0,0h0l0,0h0a.46.46,0,0,0,.11-.08h0a6.9,6.9,0,0,0,2-2.23Zm-6.75-16.87L180,301.2h0a6,6,0,0,0-6.26-3.06h0a7.34,7.34,0,0,0-4.6,2.8h0a6,6,0,0,0-.17,7h0l5.4,8.88Z"/><path class="cls-3" d="M156.58,393.09h7.63v-7.62a5.61,5.61,0,0,1,5.57-5.59h3.92a5.61,5.61,0,0,1,5.57,5.59v7.62h7.63a5.61,5.61,0,0,1,5.57,5.57v3.92a5.61,5.61,0,0,1-5.57,5.57h-7.63v7.64a5.61,5.61,0,0,1-5.57,5.57h-3.92a5.61,5.61,0,0,1-5.57-5.57v-7.64h-7.63a5.61,5.61,0,0,1-5.57-5.57v-3.92a5.61,5.61,0,0,1,5.57-5.57Zm8.64,2h-8.64a3.59,3.59,0,0,0-3.55,3.55v3.92a3.59,3.59,0,0,0,3.55,3.55h8.64a1,1,0,0,1,1,1v8.65a3.59,3.59,0,0,0,3.55,3.55h3.92a3.59,3.59,0,0,0,3.55-3.55v-8.65a1,1,0,0,1,1-1h8.64a3.59,3.59,0,0,0,3.55-3.55v-3.92a3.59,3.59,0,0,0-3.55-3.55h-8.64a1,1,0,0,1-1-1v-8.63a3.59,3.59,0,0,0-3.55-3.57h-3.92a3.59,3.59,0,0,0-3.55,3.57v8.63a1,1,0,0,1-1,1Z"/><path class="cls-3" d="M226.76,366.37v2.5h4.46a1,1,0,0,1,0,2H220.27a1,1,0,0,1,0-2h4.47v-2.5H217a1,1,0,0,1,0-2h1.7V343.1h0v-.47a1,1,0,0,1,.28-.71h0l5.78-6V324a1,1,0,1,1,2,0V336l5.76,6a1,1,0,0,1,.28.75v.43h0v21.15a.26.26,0,0,1,0,.09h1.7a1,1,0,0,1,0,2h-7.74Zm.66-3.91a1,1,0,0,1,0-2h3.38v-3.16h-3.38a1,1,0,0,1,0-2h3.38v-3.16h-3.38a1,1,0,0,1,0-2h3.38v-3.15h-3.38a1,1,0,0,1,0-2h3.38v-1.8h0V343l-5-5.21-5,5.21v.07h0v21.15a.1.1,0,0,0,0,.05h0l.05,0h9.92l.07,0s0,0,0-.07v-1.79Z"/><circle class="cls-3" cx="202.49" cy="311.2" r="2.45"/><circle class="cls-3" cx="212.28" cy="207.86" r="2.45"/><circle class="cls-3" cx="160.28" cy="220.36" r="2.45"/><circle class="cls-3" cx="189.32" cy="381.78" r="2.45"/><circle class="cls-3" cx="156.56" cy="359.5" r="2.45"/><circle class="cls-3" cx="209.58" cy="280.13" r="2.45"/><circle class="cls-3" cx="171.76" cy="262.91" r="2.45"/><path class="cls-3" d="M49.59,171.63a1,1,0,0,1,0-2h9a1,1,0,1,1,0,2ZM60.66,150a1,1,0,1,1,2,0v4.47h4.46a1,1,0,0,1,0,2H62.68V161a1,1,0,1,1-2,0v-4.47H56.19a1,1,0,0,1,0-2h4.47Zm-19,12.6a1,1,0,1,1,2,0v12.43h36v-4.87a1,1,0,1,1,2,0v12.6a1,1,0,1,1-2,0v-5.71h-36v5.71a1,1,0,1,1-2,0V162.63Z"/><path class="cls-3" d="M-11,183.43a15.55,15.55,0,0,1,9,5.36,15.42,15.42,0,0,1,3.57,9.91A15.47,15.47,0,0,1-2,208.62,15.51,15.51,0,0,1-11.1,214a1,1,0,0,1-1.17-.81.77.77,0,0,1,0-.18h0V184.42a1,1,0,0,1,1-1l.26,0Zm7.46,6.64a13.46,13.46,0,0,0-6.71-4.39v26a13.37,13.37,0,0,0,6.71-4.39A13.38,13.38,0,0,0-.45,198.7a13.41,13.41,0,0,0-3.11-8.63ZM-16.93,214a15.54,15.54,0,0,1-9-5.35,15.48,15.48,0,0,1-3.58-9.91,15.43,15.43,0,0,1,3.58-9.91,15.49,15.49,0,0,1,9.09-5.37,1,1,0,0,1,1.17.81.91.91,0,0,1,0,.19h0V213a1,1,0,0,1-1,1,.87.87,0,0,1-.27,0Zm-7.46-6.64a13.47,13.47,0,0,0,6.72,4.39v-26a13.56,13.56,0,0,0-6.72,4.39,13.49,13.49,0,0,0-3.11,8.63,13.45,13.45,0,0,0,3.11,8.62Z"/><path class="cls-3" d="M30.51,215.28l28.29,9.94a4.35,4.35,0,0,1,2.49,2.23h0a4.35,4.35,0,0,1,.19,3.33L55,249.23a4.35,4.35,0,0,1-2.23,2.49h0a4.29,4.29,0,0,1-3.32.19L21.14,242a4.35,4.35,0,0,1-2.49-2.23h0a4.35,4.35,0,0,1-.19-3.33l6.48-18.46a4.35,4.35,0,0,1,2.23-2.49h0a4.29,4.29,0,0,1,3.32-.19Zm27.62,11.84-28.29-9.94a2.32,2.32,0,0,0-1.79.1h0a2.3,2.3,0,0,0-1.2,1.34l-6.48,18.46a2.3,2.3,0,0,0,.1,1.79h0a2.32,2.32,0,0,0,1.34,1.2L50.1,250a2.32,2.32,0,0,0,1.79-.1h0a2.3,2.3,0,0,0,1.2-1.34l6.48-18.46a2.3,2.3,0,0,0-.1-1.79h0a2.32,2.32,0,0,0-1.34-1.2Zm-15.06-2.35a9.52,9.52,0,1,1-7.29.39,9.5,9.5,0,0,1,7.29-.39Zm3.61,5.73a7.53,7.53,0,1,0,.31,5.75,7.47,7.47,0,0,0-.31-5.75Zm-6.21-1.38a1,1,0,1,1,1.91.67l-1.18,3.35,3.34,1.17a1,1,0,0,1-.67,1.91l-3.34-1.17-1.17,3.34a1,1,0,1,1-1.91-.67l1.17-3.34-3.35-1.18a1,1,0,1,1,.67-1.91l3.35,1.18Zm1.94-20.4,11.19,3.93a3.26,3.26,0,0,1,2,4.14l-1.75,5a1,1,0,0,1-1.29.62l-3.16-1.11a1,1,0,0,1-.62-1.29l1-2.88a.32.32,0,0,0-.19-.39L43,214.4a.32.32,0,0,0-.23,0h0a.32.32,0,0,0-.16.17l-1,2.88a1,1,0,0,1-1.29.62L37.15,217a1,1,0,0,1-.62-1.29l1.75-5a3.26,3.26,0,0,1,4.14-2Zm10.52,5.84-11.19-3.93a1.24,1.24,0,0,0-1.56.75l-1.41,4,1.26.44.68-1.93a2.32,2.32,0,0,1,1.19-1.32h0a2.37,2.37,0,0,1,1.78-.1l6.59,2.32a2.34,2.34,0,0,1,1.43,3L51,219.71l1.26.44,1.41-4a1.24,1.24,0,0,0-.75-1.56Z"/><path class="cls-3" d="M62,295.08a1.68,1.68,0,0,1-1.23-.51,1.73,1.73,0,0,1-.51-1.23,1.77,1.77,0,0,1,.51-1.24,1.74,1.74,0,0,1,2.46,0,1.77,1.77,0,0,1,.51,1.24,1.73,1.73,0,0,1-.51,1.23,1.69,1.69,0,0,1-1.24.51Zm29.7-29.69a1.75,1.75,0,1,0-.51,1.23,1.74,1.74,0,0,0,.51-1.23Zm-.94,6.6a1.79,1.79,0,0,0-.51-1.24,1.74,1.74,0,0,0-2.46,0,1.79,1.79,0,0,0-.51,1.24,1.73,1.73,0,0,0,.51,1.23,1.74,1.74,0,0,0,2.46,0,1.73,1.73,0,0,0,.51-1.23Zm-5.66-5.66a1.74,1.74,0,0,0-.51-1.24h0a1.73,1.73,0,0,0-1.23-.51,1.76,1.76,0,0,0-1.14.43l-.08.08h0a1.74,1.74,0,0,0,0,2.46h0a1.73,1.73,0,0,0,2.37.08l.09-.08h0a1.73,1.73,0,0,0,.51-1.23Zm-8.47,6.19A1,1,0,0,1,78,271.1l6.18,6.18a1,1,0,0,1-1.43,1.43Zm15.7-12.71L95.48,263a6.53,6.53,0,0,1,0,9.21L68.79,298.9a6.5,6.5,0,0,1-9.21,0l-3.19-3.19a6.49,6.49,0,0,1-1.9-4.61h0a6.49,6.49,0,0,1,1.9-4.61l26.69-26.69h0a6.53,6.53,0,0,1,9.21,0Zm1.76,4.62-3.19-3.19h0a4.52,4.52,0,0,0-6.36,0h0L57.82,287.93a4.5,4.5,0,0,0-1.32,3.18h0a4.46,4.46,0,0,0,1.31,3.18L61,297.48a4.49,4.49,0,0,0,6.36,0l26.69-26.69a4.52,4.52,0,0,0,0-6.36Zm-26.38,17a1,1,0,0,1,0-1.44,1,1,0,0,1,1.43,0l6.18,6.18a1,1,0,0,1-1.43,1.43Zm.89,12.68a1.79,1.79,0,0,1-1.24-.51,1.74,1.74,0,0,1,0-2.46,1.79,1.79,0,0,1,1.24-.51,1.73,1.73,0,0,1,1.23.51,1.74,1.74,0,0,1,0,2.46,1.73,1.73,0,0,1-1.23.51Zm-5.67-5.66a1.73,1.73,0,0,1-1.23-.51h0a1.79,1.79,0,0,1-.51-1.24,1.76,1.76,0,0,1,.43-1.14l.08-.08h0a1.74,1.74,0,0,1,2.46,0h0a1.73,1.73,0,0,1,.08,2.37l-.08.09h0a1.74,1.74,0,0,1-1.24.51Z"/><path class="cls-3" d="M82.39,365.88a6.91,6.91,0,0,1,4.09,3,6.82,6.82,0,0,1,.86,2.56,6.38,6.38,0,0,1,2.12-1.69,7,7,0,0,1,5.17-.24,6.81,6.81,0,0,1,4.16,3.61,8,8,0,0,1,.41,5.76c-.47,1.55-1.89,3-3.76,4.43a.59.59,0,0,1-.19.14A66.28,66.28,0,0,1,85.29,389c-1.27.6-2.38,1.13-3.16,1.56a.68.68,0,0,1-.92-.27h0c-.47-.87-1.14-2-1.88-3.24-2.31-3.91-5.39-9.07-6-13a.82.82,0,0,1,0-.24,6.28,6.28,0,0,1,.13-2.64,8,8,0,0,1,3.52-4.58,6.79,6.79,0,0,1,5.46-.72Zm2.92,3.74A5.58,5.58,0,0,0,82,367.19a5.43,5.43,0,0,0-4.37.58,6.63,6.63,0,0,0-2.91,3.81,4.61,4.61,0,0,0-.14,1.75L80,374.95l2.54-3.14a.68.68,0,0,1,1-.1.67.67,0,0,1,.26.5l.5,8.57,3.08-3.62a.67.67,0,0,1,1-.08.68.68,0,0,1,.24.47l.3,2.8,6,1.81a8.16,8.16,0,0,0,3.07-3.61,6.59,6.59,0,0,0-.33-4.78,5.42,5.42,0,0,0-3.32-2.89A5.66,5.66,0,0,0,90,371a6.08,6.08,0,0,0-2.81,3.27h0a.68.68,0,0,1-1.29-.37,6.39,6.39,0,0,0-.63-4.3ZM84.7,387.8a77.73,77.73,0,0,0,8.7-4.65L88,381.52h0a.68.68,0,0,1-.48-.58l-.19-1.71-3.13,3.69a.67.67,0,0,1-.5.27.68.68,0,0,1-.72-.64L82.46,374l-1.7,2.1a.67.67,0,0,1-.74.26l-5.18-1.56c.88,3.5,3.59,8.06,5.67,11.56.59,1,1.13,1.91,1.57,2.71.74-.38,1.64-.82,2.62-1.29Zm-1-15.6a.73.73,0,0,1-.16.46"/><path class="cls-3" d="M167.24,155.51a1,1,0,1,1,1.73-1.05,5,5,0,0,1,.6,4.22,5.5,5.5,0,0,1-2.4,3,1,1,0,0,1-1.05-1.73,3.44,3.44,0,0,0,1.52-1.87,3,3,0,0,0-.4-2.58Zm5.36-1.2a7.8,7.8,0,0,1-.07,7.42l0,.07v0a9.17,9.17,0,0,1-2.5,2.81l0,0,0,0,0,0,0,0h0l0,0,0,0-.06,0h0l0,0,0,0v0l0,0h0l0,0,0,0h0l0,0h0l-.08,0-.16.1h0l-.14.08h0l-.1.06a8.06,8.06,0,0,1-10.53-2.1h0l-.08-.11-.06-.07L158,163a1,1,0,0,1-.12-.17l0-.06a.89.89,0,0,1-.11-.15l0,0-.13-.21h0l0,0-5.93-9.74-5.94-9.75v0a7.91,7.91,0,0,1,.31-9.23h0a9.3,9.3,0,0,1,5.88-3.58.14.14,0,0,1,.07,0,7.94,7.94,0,0,1,8.28,4v0l5.94,9.75,5.93,9.74v0h0l.09.15h0l.08.16h0l.08.14,0,.06,0,.07,0,.07h0Zm-1.87,6.51a6,6,0,0,0-.16-6h0l-.06-.12v0l-.07-.12h0l-5.4-8.88-11.09,6.75,5.4,8.88h0l.1.16v0l.09.15h0a6.18,6.18,0,0,0,8.66,1.74l0,0h0l.06,0h0l0,0h0l0,0h0l0,0h0l0,0h0a.46.46,0,0,0,.11-.08h0a6.9,6.9,0,0,0,2-2.23ZM164,144l-5.4-8.88h0A6,6,0,0,0,152.3,132h0a7.34,7.34,0,0,0-4.6,2.8h0a6,6,0,0,0-.17,7h0l5.4,8.88Z"/><path class="cls-3" d="M100.34,195v0c0-1,1-1.82,2.61-2.3a19.64,19.64,0,0,1,9.68,0c1.62.48,2.61,1.31,2.61,2.33v4a1.73,1.73,0,0,1-.3.94,13.24,13.24,0,0,1,2.5,1,3.83,3.83,0,0,1,2.28,3.07v20.79h0v8.07c0,1.6-1.47,2.95-3.86,3.85a26.37,26.37,0,0,1-16.15,0c-2.4-.9-3.86-2.25-3.86-3.85v-8.07h0V204c0-1.21.85-2.26,2.28-3.08a13.24,13.24,0,0,1,2.5-1,1.6,1.6,0,0,1-.3-.9V195Zm12.79,6.56v1.21h0a.82.82,0,0,1,0,.2c-.11.77-.85,1.35-2,1.68a13.51,13.51,0,0,1-6.67,0c-1.13-.34-1.87-.92-2-1.68a.81.81,0,0,1,0-.2h0v-1.21a11.61,11.61,0,0,0-3.31,1.19c-.81.46-1.27.93-1.27,1.36v4.62h0c.07.65,1,1.32,2.56,1.9a24.5,24.5,0,0,0,14.72,0c1.54-.58,2.5-1.25,2.56-1.9v-4.63c0-.43-.46-.9-1.27-1.36a11.61,11.61,0,0,0-3.31-1.19ZM97.88,225.05v0h0v0c0,.66,1,1.36,2.54,2a24.59,24.59,0,0,0,14.74,0c1.58-.59,2.54-1.29,2.54-2v-.05a1.19,1.19,0,0,1,0-.23,1.33,1.33,0,0,1,0-.23v-13a10.23,10.23,0,0,1-1.84.9,26.37,26.37,0,0,1-16.15,0,10.23,10.23,0,0,1-1.84-.9v13a1.25,1.25,0,0,1,0,.39.1.1,0,0,0,0,.05Zm0,3v4.36a1.25,1.25,0,0,1,0,.39.21.21,0,0,0,0,.05h0v0c0,.67,1,1.37,2.54,2a24.59,24.59,0,0,0,14.74,0c1.58-.59,2.54-1.29,2.54-2v0h0a1.19,1.19,0,0,1,0-.23,1.33,1.33,0,0,1,0-.23v-4.35a10.23,10.23,0,0,1-1.84.89,26.37,26.37,0,0,1-16.15,0,10.23,10.23,0,0,1-1.84-.89Zm5.43-28.74a1.11,1.11,0,0,1,.36,0l.09,0a13.35,13.35,0,0,0,1.56.31h.23c.4,0,.83.08,1.29.09h1.9c.46,0,.89-.05,1.29-.09h.3a13.29,13.29,0,0,0,1.52-.3l.07,0a1.11,1.11,0,0,1,.36,0,4.3,4.3,0,0,0,.94-.34h0v-1.87l-.59.2a19.64,19.64,0,0,1-9.68,0l-.59-.2V199a4.44,4.44,0,0,0,.94.34Zm7.81,2.34a20.59,20.59,0,0,1-6.64,0v1.08h0c0,.09.23-.15.55-.05a11.54,11.54,0,0,0,5.53,0c.32-.09.53.13.55.07h0v-1.08ZM106.23,216h3.14a1,1,0,0,1,1,1v1.29h1.29a1,1,0,0,1,1,1v3.14a1,1,0,0,1-1,1h-1.29v1.29a1,1,0,0,1-1,1h-3.14a1,1,0,0,1-1-1v-1.29h-1.29a1,1,0,0,1-1-1v-3.14a1,1,0,0,1,1-1h1.29V217a1,1,0,0,1,1-1Zm2.13,2h-1.12v1.29a1,1,0,0,1-1,1h-1.29v1.12h1.29a1,1,0,0,1,1,1v1.29h1.12v-1.29a1,1,0,0,1,1-1h1.29v-1.12h-1.29a1,1,0,0,1-1-1ZM113.23,195h0a9.64,9.64,0,0,0-1.17-.39,17.61,17.61,0,0,0-8.54,0,8,8,0,0,0-1.16.39,5.77,5.77,0,0,0,1.16.4,17.61,17.61,0,0,0,8.54,0,9.64,9.64,0,0,0,1.17-.39Z"/><path class="cls-3" d="M147.49,267.16a1,1,0,1,1,2,0,9.22,9.22,0,0,1-9.22,9.21,1,1,0,0,1,0-2,7.2,7.2,0,0,0,7.2-7.19Zm7.58-.38a14.86,14.86,0,0,1-29.72,0c0-5.63,5.26-13.52,9.76-20.27,1.62-2.44,3.14-4.71,4.23-6.61a1,1,0,0,1,1.37-.38,1,1,0,0,1,.36.38h0c1.12,1.93,2.63,4.19,4.24,6.61,4.5,6.75,9.75,14.64,9.75,20.27Zm-5.78,9.08a12.84,12.84,0,0,0,3.76-9.08c0-5-5.08-12.64-9.41-19.16-1.24-1.86-2.42-3.64-3.42-5.25-1,1.63-2.19,3.39-3.43,5.25-4.34,6.53-9.41,14.14-9.41,19.16a12.84,12.84,0,0,0,21.92,9.08Z"/><path class="cls-3" d="M42.19,368.37a1,1,0,0,1,0,2,4.55,4.55,0,0,1-4.54-4.54,1,1,0,1,1,2,0,2.53,2.53,0,0,0,2.52,2.52Zm-.54-40.48h0a3.48,3.48,0,0,1,2.46,1h0a3.49,3.49,0,0,1,1,2.48V333h1.75a1,1,0,0,1,0,2H45.16v3.65h1.75a1,1,0,0,1,0,2H45.16v3.65h1.75a1,1,0,0,1,0,2H45.16V350h1.75a1,1,0,0,1,0,2H45.16v3.66h1.75a1,1,0,0,1,0,2H45.16v1.8a7.77,7.77,0,1,1-7,0V331.39a3.49,3.49,0,0,1,1-2.48h0a3.54,3.54,0,0,1,2.48-1Zm0,2h0a1.46,1.46,0,0,0-1.05.43h0a1.46,1.46,0,0,0-.43,1.05v28.68h0a1,1,0,0,1-.63,1.05,5.74,5.74,0,0,0-3.64,5.36,5.76,5.76,0,1,0,7.88-5.36h0a1,1,0,0,1-.63-1v-2.42H42.5a1,1,0,0,1,0-2h.63V352H42.5a1,1,0,0,1,0-2h.63v-3.65H42.5a1,1,0,0,1,0-2h.63v-3.65H42.5a1,1,0,0,1,0-2h.63V335H42.5a1,1,0,0,1,0-2h.63v-1.63a1.5,1.5,0,0,0-.44-1.05h0a1.43,1.43,0,0,0-1-.43Z"/><path class="cls-3" d="M97.26,132.07h4.8v-4.79a3.52,3.52,0,0,1,3.5-3.51H108a3.52,3.52,0,0,1,3.5,3.51v4.79h4.8a3.52,3.52,0,0,1,3.5,3.5V138a3.52,3.52,0,0,1-3.5,3.5h-4.8v4.8a3.52,3.52,0,0,1-3.5,3.5h-2.46a3.52,3.52,0,0,1-3.5-3.5v-4.8h-4.8a3.52,3.52,0,0,1-3.5-3.5v-2.46a3.52,3.52,0,0,1,3.5-3.5Zm5.43,1.27H97.26A2.25,2.25,0,0,0,95,135.58V138a2.25,2.25,0,0,0,2.23,2.23h5.43a.64.64,0,0,1,.63.63v5.43a2.25,2.25,0,0,0,2.23,2.23H108a2.25,2.25,0,0,0,2.23-2.23V140.9a.64.64,0,0,1,.63-.63h5.43a2.25,2.25,0,0,0,2.23-2.23v-2.46a2.25,2.25,0,0,0-2.23-2.23h-5.43a.63.63,0,0,1-.63-.63v-5.42A2.25,2.25,0,0,0,108,125h-2.46a2.25,2.25,0,0,0-2.23,2.24v5.42a.63.63,0,0,1-.63.63Z"/><path class="cls-3" d="M14.12,310.05v2.5h4.46a1,1,0,0,1,0,2H7.63a1,1,0,0,1,0-2H12.1v-2.5H4.35a1,1,0,0,1,0-2H6V286.78H6v-.47a1,1,0,0,1,.28-.71h0l5.78-6V267.73a1,1,0,1,1,2,0v11.92l5.76,6a1,1,0,0,1,.28.75v.43h0v21.15a.26.26,0,0,1,0,.09h1.7a1,1,0,0,1,0,2H14.12Zm.66-3.91a1,1,0,0,1,0-2h3.38V301H14.78a1,1,0,0,1,0-2h3.38v-3.16H14.78a1,1,0,0,1,0-2h3.38v-3.15H14.78a1,1,0,0,1,0-2h3.38v-1.8h0v-.07l-5-5.21-5,5.21v.07h0v21.15a.1.1,0,0,0,0,.05h0l.05,0h9.92l.07,0s0,0,0-.07v-1.79Z"/><path class="cls-3" d="M118.33,343.27a4.92,4.92,0,1,1-3.38,8.48,11.23,11.23,0,0,1-3.9.77,6.66,6.66,0,0,1-5.66-3,14.7,14.7,0,0,1-2.22-6.34,32.87,32.87,0,0,1,.15-9.43A11.54,11.54,0,0,1,93,323.23a1.05,1.05,0,0,1,0-.3v-.69h0V311.92a2.58,2.58,0,0,1,.13-3.53,2.6,2.6,0,0,1,3.66,0,2.6,2.6,0,0,1,0,3.66,2.59,2.59,0,0,1-1.78.75v9.44h0v.48c0,.05,0,.09,0,.13a9.39,9.39,0,0,0,3,6.34,9.52,9.52,0,0,0,16-6.28.89.89,0,0,1,0-.2v-.46h0v-9.47a2.58,2.58,0,1,1,2-.89v10.36h0v.66a1.05,1.05,0,0,1,0,.3,11.56,11.56,0,0,1-10.66,10.54,30.88,30.88,0,0,0-.19,9.1,12.77,12.77,0,0,0,1.87,5.47,4.74,4.74,0,0,0,4,2.15,8.33,8.33,0,0,0,2.73-.47,5,5,0,0,1-.36-1.84,4.92,4.92,0,0,1,4.91-4.92Zm-23-33.45a.57.57,0,0,0-.4-.16.53.53,0,0,0-.4.16.55.55,0,0,0,0,.81.58.58,0,0,0,.4.16.63.63,0,0,0,.4-.16.59.59,0,0,0,0-.81Zm19.16,0a.57.57,0,0,0-.81.81.57.57,0,0,0,.81-.81Zm1.33,39.83a1,1,0,0,1,.42.48.18.18,0,0,1,0,.11,2.9,2.9,0,0,0,4.93-2.06,2.9,2.9,0,1,0-5.39,1.47Z"/><circle class="cls-3" cx="111.09" cy="291.7" r="2.45"/><circle class="cls-3" cx="37.81" cy="314.67" r="2.45"/><circle class="cls-3" cx="22.95" cy="172.83" r="2.45"/><circle class="cls-3" cx="-0.35" cy="151.55" r="2.45"/><circle class="cls-3" cx="149.59" cy="211.66" r="2.45"/><circle class="cls-3" cx="147.23" cy="169.45" r="2.45"/><circle class="cls-3" cx="136.76" cy="320.74" r="2.45"/><circle class="cls-3" cx="75.97" cy="339.66" r="2.45"/><circle class="cls-3" cx="107.72" cy="250.16" r="2.45"/><circle class="cls-3" cx="104.34" cy="167.08" r="2.45"/><circle class="cls-3" cx="43.21" cy="263.67" r="2.45"/><circle class="cls-3" cx="56.38" cy="358.23" r="2.45"/><circle class="cls-3" cx="76.31" cy="231.93" r="2.45"/><circle class="cls-3" cx="8.09" cy="364.98" r="2.45"/><path class="cls-3" d="M190.35-8.93a15.54,15.54,0,0,1-.08,30.54,1,1,0,0,1-1.17-.81.77.77,0,0,1,0-.18h0V-7.95a1,1,0,0,1,1-1l.26,0Zm7.46,6.64a13.46,13.46,0,0,0-6.71-4.39v26A13.37,13.37,0,0,0,197.81,15a13.38,13.38,0,0,0,3.11-8.62,13.41,13.41,0,0,0-3.11-8.63ZM184.44,21.6a15.55,15.55,0,0,1,.08-30.54,1,1,0,0,1,1.17.81.91.91,0,0,1,0,.19h0V20.63a1,1,0,0,1-1,1,.87.87,0,0,1-.27,0ZM177,15a13.47,13.47,0,0,0,6.72,4.39v-26A13.52,13.52,0,0,0,177,15Z"/><path class="cls-3" d="M231.88,22.91l28.29,9.94a4.35,4.35,0,0,1,2.49,2.23h0a4.35,4.35,0,0,1,.19,3.33l-6.48,18.46a4.35,4.35,0,0,1-2.23,2.49h0a4.29,4.29,0,0,1-3.32.19l-28.29-9.94A4.35,4.35,0,0,1,220,47.38h0a4.35,4.35,0,0,1-.19-3.33l6.48-18.46a4.35,4.35,0,0,1,2.23-2.49h0a4.29,4.29,0,0,1,3.32-.19Zm27.62,11.84-28.29-9.94a2.32,2.32,0,0,0-1.79.1h0a2.3,2.3,0,0,0-1.2,1.34l-6.48,18.46a2.3,2.3,0,0,0,.1,1.79h0a2.32,2.32,0,0,0,1.34,1.2l28.29,9.94a2.32,2.32,0,0,0,1.79-.1h0a2.3,2.3,0,0,0,1.2-1.34l6.48-18.46a2.3,2.3,0,0,0-.1-1.79h0a2.32,2.32,0,0,0-1.34-1.2ZM244.45,32.4a9.52,9.52,0,1,1-7.29.39,9.5,9.5,0,0,1,7.29-.39Zm3.61,5.73a7.53,7.53,0,1,0,.31,5.75,7.47,7.47,0,0,0-.31-5.75Zm-6.21-1.38a1,1,0,1,1,1.91.67l-1.18,3.35L245.92,42a1,1,0,0,1-.67,1.91l-3.34-1.17L240.73,46a1,1,0,1,1-1.91-.67L240,42l-3.35-1.18a1,1,0,0,1,.67-1.91l3.35,1.18Zm1.94-20.4L255,20.29a3.26,3.26,0,0,1,2,4.14l-1.75,5a1,1,0,0,1-1.29.62l-3.16-1.11a1,1,0,0,1-.62-1.29l1-2.88a.32.32,0,0,0-.19-.39L244.38,22a.32.32,0,0,0-.23,0h0a.32.32,0,0,0-.16.17l-1,2.88a1,1,0,0,1-1.29.62l-3.16-1.11a1,1,0,0,1-.62-1.29l1.75-5a3.26,3.26,0,0,1,4.14-2Zm10.52,5.84-11.19-3.93a1.24,1.24,0,0,0-1.56.75l-1.41,4,1.26.44.68-1.93a2.32,2.32,0,0,1,1.19-1.32h0a2.37,2.37,0,0,1,1.78-.1l6.59,2.32a2.34,2.34,0,0,1,1.43,3l-.68,1.93,1.26.44,1.41-4a1.24,1.24,0,0,0-.75-1.56Z"/><path class="cls-3" d="M177.44,73a1,1,0,1,1,1.73-1.05,5,5,0,0,1,.6,4.22,5.5,5.5,0,0,1-2.4,3,1,1,0,0,1-1.05-1.73,3.44,3.44,0,0,0,1.52-1.87,3,3,0,0,0-.4-2.58Zm5.36-1.2a7.8,7.8,0,0,1-.07,7.42l0,.07v0a9.17,9.17,0,0,1-2.5,2.81l0,0,0,0,0,0,0,0h0l0,0,0,0-.06,0h0l0,0,0,0v0l0,0h0l0,0,0,0h0l0,0h0l-.08,0-.16.1h0l-.14.08h0l-.1.06a8.06,8.06,0,0,1-10.53-2.1h0l-.08-.11-.06-.07-.06-.09a1,1,0,0,1-.12-.17l0-.06a.89.89,0,0,1-.11-.15l0,0-.13-.21h0l0,0-5.93-9.74L156,60.31v0a7.91,7.91,0,0,1,.31-9.23h0a9.3,9.3,0,0,1,5.88-3.58.14.14,0,0,1,.07,0,7.94,7.94,0,0,1,8.28,4v0l5.94,9.75L182.36,71v0h0l.09.15h0l.08.16h0l.08.14,0,.06,0,.07,0,.07h0Zm-1.87,6.51a6,6,0,0,0-.16-6h0l-.06-.12v0l-.07-.12h0l-5.4-8.88-11.09,6.75,5.4,8.88h0l.1.16v0l.09.15h0a6.18,6.18,0,0,0,8.66,1.74l0,0h0l.06,0h0l0,0h0l0,0h0l0,0h0l0,0h0a.46.46,0,0,0,.11-.08h0a6.9,6.9,0,0,0,2-2.23ZM174.18,61.4l-5.4-8.88h0a6,6,0,0,0-6.26-3.06h0a7.34,7.34,0,0,0-4.6,2.8h0a6,6,0,0,0-.17,7h0l5.4,8.88Z"/><path class="cls-3" d="M215.5,117.69v2.5H220a1,1,0,0,1,0,2H209a1,1,0,0,1,0-2h4.47v-2.5h-7.76a1,1,0,0,1,0-2h1.7V94.42h0v-.47a1,1,0,0,1,.28-.71h0l5.78-6V75.37a1,1,0,1,1,2,0V87.28l5.76,6a1,1,0,0,1,.28.75v.43h0v21.15a.26.26,0,0,1,0,.09h1.7a1,1,0,0,1,0,2H215.5Zm.66-3.91a1,1,0,0,1,0-2h3.38V108.6h-3.38a1,1,0,0,1,0-2h3.38v-3.16h-3.38a1,1,0,0,1,0-2h3.38V98.24h-3.38a1,1,0,0,1,0-2h3.38v-1.8h0v-.07l-5-5.21-5,5.21v.07h0v21.15a.1.1,0,0,0,0,.05h0l.05,0h9.92l.07,0s0,0,0-.07v-1.79Z"/><circle class="cls-3" cx="191.23" cy="62.53" r="2.45"/><circle class="cls-3" cx="178.06" cy="133.11" r="2.45"/><circle class="cls-3" cx="145.3" cy="110.82" r="2.45"/><circle class="cls-3" cx="198.32" cy="31.46" r="2.45"/><circle class="cls-3" cx="209.46" cy="172.62" r="2.45"/><circle class="cls-3" cx="160.49" cy="14.23" r="2.45"/><path class="cls-3" d="M19.25-33.4l28.29,9.94A4.35,4.35,0,0,1,50-21.24h0a4.35,4.35,0,0,1,.19,3.33L43.73.56A4.35,4.35,0,0,1,41.5,3h0a4.29,4.29,0,0,1-3.32.19L9.87-6.71A4.35,4.35,0,0,1,7.39-8.94h0a4.35,4.35,0,0,1-.19-3.33l6.48-18.46a4.35,4.35,0,0,1,2.23-2.49h0a4.29,4.29,0,0,1,3.32-.19ZM46.87-21.56,18.58-31.5a2.32,2.32,0,0,0-1.79.1h0a2.3,2.3,0,0,0-1.2,1.34L9.11-11.6a2.3,2.3,0,0,0,.1,1.79h0a2.32,2.32,0,0,0,1.34,1.2L38.84,1.32a2.32,2.32,0,0,0,1.79-.1h0a2.3,2.3,0,0,0,1.2-1.34l6.48-18.46a2.3,2.3,0,0,0-.1-1.79h0a2.32,2.32,0,0,0-1.34-1.2ZM31.81-23.91A9.5,9.5,0,0,1,37.24-19a9.5,9.5,0,0,1,.39,7.29,9.5,9.5,0,0,1-4.86,5.43,9.51,9.51,0,0,1-7.28.41,9.51,9.51,0,0,1-5.44-4.88,9.5,9.5,0,0,1-.4-7.28,9.5,9.5,0,0,1,4.87-5.44,9.5,9.5,0,0,1,7.29-.39Zm3.61,5.73A7.47,7.47,0,0,0,31.14-22a7.48,7.48,0,0,0-5.75.31,7.5,7.5,0,0,0-3.83,4.29,7.47,7.47,0,0,0,.31,5.73,7.49,7.49,0,0,0,4.29,3.85,7.48,7.48,0,0,0,5.74-.33,7.47,7.47,0,0,0,3.83-4.28,7.5,7.5,0,0,0-.31-5.75Zm-6.21-1.38a1,1,0,0,1,1.29-.62,1,1,0,0,1,.62,1.29l-1.18,3.35,3.34,1.17a1,1,0,0,1,.62,1.29,1,1,0,0,1-1.29.62l-3.34-1.17L28.1-10.28a1,1,0,0,1-1.29.62A1,1,0,0,1,26.19-11l1.17-3.34L24-15.47a1,1,0,0,1-.62-1.29,1,1,0,0,1,1.29-.62L28-16.2ZM31.15-40,42.35-36a3.2,3.2,0,0,1,1.84,1.66,3.23,3.23,0,0,1,.14,2.48l-1.75,5a1,1,0,0,1-1.29.62L38.13-27.4a1,1,0,0,1-.62-1.29l1-2.88a.32.32,0,0,0,0-.23.32.32,0,0,0-.17-.16l-6.59-2.32a.32.32,0,0,0-.23,0h0a.32.32,0,0,0-.16.17l-1,2.88a1,1,0,0,1-1.29.62L25.88-31.7A1,1,0,0,1,25.27-33L27-38a3.23,3.23,0,0,1,1.66-1.84A3.2,3.2,0,0,1,31.15-40Zm10.52,5.84L30.48-38a1.18,1.18,0,0,0-.93.06,1.18,1.18,0,0,0-.63.69l-1.41,4,1.26.44.68-1.93a2.32,2.32,0,0,1,1.19-1.32h0a2.37,2.37,0,0,1,1.78-.1L39-33.87a2.32,2.32,0,0,1,1.32,1.19,2.32,2.32,0,0,1,.1,1.78L39.75-29l1.26.44,1.41-4a1.18,1.18,0,0,0-.06-.93,1.18,1.18,0,0,0-.69-.63Z"/><path class="cls-3" d="M50.69,46.4a1.68,1.68,0,0,1-1.23-.51A1.73,1.73,0,0,1,49,44.66a1.77,1.77,0,0,1,.51-1.24,1.74,1.74,0,0,1,2.46,0,1.77,1.77,0,0,1,.51,1.24,1.73,1.73,0,0,1-.51,1.23,1.69,1.69,0,0,1-1.24.51ZM80.4,16.71a1.75,1.75,0,1,0-.51,1.23,1.74,1.74,0,0,0,.51-1.23Zm-.94,6.6a1.79,1.79,0,0,0-.51-1.24,1.74,1.74,0,0,0-2.46,0A1.79,1.79,0,0,0,76,23.31a1.73,1.73,0,0,0,.51,1.23,1.74,1.74,0,0,0,2.46,0,1.73,1.73,0,0,0,.51-1.23ZM73.8,17.65a1.74,1.74,0,0,0-.51-1.24h0A1.73,1.73,0,0,0,72,15.9a1.76,1.76,0,0,0-1.14.43l-.08.08h0a1.74,1.74,0,0,0,0,2.46h0a1.73,1.73,0,0,0,2.37.08l.09-.08h0a1.73,1.73,0,0,0,.51-1.23Zm-8.47,6.19a1,1,0,0,1,1.43-1.43l6.18,6.18A1,1,0,0,1,71.51,30ZM81,11.13l3.19,3.19a6.53,6.53,0,0,1,0,9.21L57.53,50.23a6.5,6.5,0,0,1-9.21,0L45.13,47a6.49,6.49,0,0,1-1.9-4.61h0a6.49,6.49,0,0,1,1.9-4.61L71.82,11.13h0a6.53,6.53,0,0,1,9.21,0Zm1.76,4.62L79.6,12.56h0a4.52,4.52,0,0,0-6.36,0h0L46.56,39.25a4.5,4.5,0,0,0-1.32,3.18h0a4.46,4.46,0,0,0,1.31,3.18l3.19,3.19a4.49,4.49,0,0,0,6.36,0L82.79,22.11a4.52,4.52,0,0,0,0-6.36Zm-26.38,17a1,1,0,0,1,0-1.44,1,1,0,0,1,1.43,0L64,37.51a1,1,0,1,1-1.43,1.43Zm.89,12.68a1.79,1.79,0,0,1-1.24-.51,1.74,1.74,0,0,1,0-2.46A1.79,1.79,0,0,1,57.3,42a1.73,1.73,0,0,1,1.23.51,1.74,1.74,0,0,1,0,2.46,1.73,1.73,0,0,1-1.23.51ZM51.63,39.8a1.73,1.73,0,0,1-1.23-.51h0a1.79,1.79,0,0,1-.51-1.24,1.76,1.76,0,0,1,.43-1.14l.08-.08h0a1.74,1.74,0,0,1,2.46,0h0A1.73,1.73,0,0,1,53,39.2l-.08.09h0a1.74,1.74,0,0,1-1.24.51Z"/><path class="cls-3" d="M71.13,117.2a6.91,6.91,0,0,1,4.09,3,6.82,6.82,0,0,1,.86,2.56,6.38,6.38,0,0,1,2.12-1.69,7,7,0,0,1,5.17-.24,6.81,6.81,0,0,1,4.16,3.61,8,8,0,0,1,.41,5.76c-.47,1.55-1.89,3-3.76,4.43a.59.59,0,0,1-.19.14A66.28,66.28,0,0,1,74,140.36c-1.27.6-2.38,1.13-3.16,1.56a.68.68,0,0,1-.92-.27h0c-.47-.87-1.14-2-1.88-3.24-2.31-3.91-5.39-9.07-6-13a.82.82,0,0,1,0-.24,6.28,6.28,0,0,1,.13-2.64,8,8,0,0,1,3.52-4.58,6.79,6.79,0,0,1,5.46-.72ZM74,120.95a5.58,5.58,0,0,0-3.31-2.44,5.43,5.43,0,0,0-4.37.58,6.63,6.63,0,0,0-2.91,3.81,4.61,4.61,0,0,0-.14,1.75l5.39,1.62,2.54-3.14a.68.68,0,0,1,1-.1.67.67,0,0,1,.26.5l.5,8.57L76,128.48a.67.67,0,0,1,1-.08.68.68,0,0,1,.24.47l.3,2.8,6,1.81a8.16,8.16,0,0,0,3.07-3.61,6.59,6.59,0,0,0-.33-4.78A5.42,5.42,0,0,0,83,122.19a5.66,5.66,0,0,0-4.19.15A6.08,6.08,0,0,0,76,125.61h0a.68.68,0,0,1-1.29-.37,6.39,6.39,0,0,0-.63-4.3Zm-.61,18.18a77.73,77.73,0,0,0,8.7-4.65l-5.42-1.63h0a.68.68,0,0,1-.48-.58l-.19-1.71-3.13,3.69a.67.67,0,0,1-.5.27.68.68,0,0,1-.72-.64l-.51-8.52-1.7,2.1a.67.67,0,0,1-.74.26l-5.18-1.56c.88,3.5,3.59,8.06,5.67,11.56.59,1,1.13,1.91,1.57,2.71.74-.38,1.64-.82,2.62-1.29Zm-1-15.6a.73.73,0,0,1-.16.46"/><path class="cls-3" d="M136.23,18.48a1,1,0,1,1,2,0A9.22,9.22,0,0,1,129,27.69a1,1,0,0,1,0-2,7.2,7.2,0,0,0,7.2-7.19Zm7.58-.38a14.86,14.86,0,0,1-29.72,0c0-5.63,5.26-13.52,9.76-20.27,1.62-2.44,3.14-4.71,4.23-6.61a1,1,0,0,1,1.37-.38,1,1,0,0,1,.36.38h0c1.12,1.93,2.63,4.19,4.24,6.61,4.5,6.75,9.75,14.64,9.75,20.27ZM138,27.18a12.84,12.84,0,0,0,3.76-9.08c0-5-5.08-12.64-9.41-19.16C131.14-2.92,130-4.7,129-6.31c-1,1.63-2.19,3.39-3.43,5.25-4.34,6.53-9.41,14.14-9.41,19.16A12.84,12.84,0,0,0,138,27.18Z"/><path class="cls-3" d="M30.93,119.69a1,1,0,0,1,0,2,4.55,4.55,0,0,1-4.54-4.54,1,1,0,1,1,2,0,2.53,2.53,0,0,0,2.52,2.52Zm-.54-40.48h0a3.48,3.48,0,0,1,2.46,1h0a3.49,3.49,0,0,1,1,2.48v1.63h1.75a1,1,0,0,1,0,2H33.89V90h1.75a1,1,0,0,1,0,2H33.89v3.65h1.75a1,1,0,0,1,0,2H33.89v3.65h1.75a1,1,0,0,1,0,2H33.89V107h1.75a1,1,0,0,1,0,2H33.89v1.8a7.77,7.77,0,1,1-7,0V82.72a3.49,3.49,0,0,1,1-2.48h0a3.54,3.54,0,0,1,2.48-1Zm0,2h0a1.46,1.46,0,0,0-1.05.43h0a1.46,1.46,0,0,0-.43,1.05V111.4h0a1,1,0,0,1-.63,1.05,5.74,5.74,0,0,0-3.64,5.36,5.76,5.76,0,1,0,7.88-5.36h0a1,1,0,0,1-.63-1v-2.42h-.63a1,1,0,0,1,0-2h.63v-3.66h-.63a1,1,0,0,1,0-2h.63V97.7h-.63a1,1,0,0,1,0-2h.63V92h-.63a1,1,0,0,1,0-2h.63V86.37h-.63a1,1,0,0,1,0-2h.63V82.72a1.5,1.5,0,0,0-.44-1.05h0a1.43,1.43,0,0,0-1-.43Z"/><path class="cls-3" d="M2.86,61.38v2.5H7.32a1,1,0,0,1,0,2H-3.63a1,1,0,0,1-1-1,1,1,0,0,1,1-1H.84v-2.5H-6.91a1,1,0,0,1-1-1,1,1,0,0,1,1-1h1.7V38.11h0v-.47a1,1,0,0,1,.28-.71h0L.84,31V19.05a1,1,0,1,1,2,0V31l5.76,6a1,1,0,0,1,.28.75v.43h0V59.26a.26.26,0,0,1,0,.09h1.7a1,1,0,0,1,0,2H2.86Zm.66-3.91a1,1,0,0,1,0-2H6.9V52.29H3.52a1,1,0,0,1,0-2H6.9V47.1H3.52a1,1,0,0,1,0-2H6.9V41.93H3.52a1,1,0,0,1,0-2H6.9v-1.8h0V38l-5-5.21L-3.2,38v.07h0V59.26a.1.1,0,0,0,0,.05h0l.05,0H6.81l.07,0s0,0,0-.07V57.47Z"/><path class="cls-3" d="M107.07,94.59a4.92,4.92,0,1,1-3.38,8.48,11.23,11.23,0,0,1-3.9.77,6.66,6.66,0,0,1-5.66-3,14.7,14.7,0,0,1-2.22-6.34,32.87,32.87,0,0,1,.15-9.43,11.54,11.54,0,0,1-10.3-10.5,1.05,1.05,0,0,1,0-.3v-.69h0V63.24a2.58,2.58,0,0,1,.13-3.53,2.6,2.6,0,0,1,3.66,0,2.6,2.6,0,0,1,0,3.66,2.59,2.59,0,0,1-1.78.75v9.44h0v.48c0,.05,0,.09,0,.13a9.39,9.39,0,0,0,3,6.34,9.52,9.52,0,0,0,16-6.28.89.89,0,0,1,0-.2V73.6h0V64.13a2.58,2.58,0,1,1,2-.89V73.6h0v.66a1.05,1.05,0,0,1,0,.3A11.56,11.56,0,0,1,94.09,85.1a30.88,30.88,0,0,0-.19,9.1,12.77,12.77,0,0,0,1.87,5.47,4.74,4.74,0,0,0,4,2.15,8.33,8.33,0,0,0,2.73-.47,5,5,0,0,1-.36-1.84,4.92,4.92,0,0,1,4.91-4.92Zm-23-33.45a.57.57,0,0,0-.4-.16.53.53,0,0,0-.4.16.55.55,0,0,0,0,.81.58.58,0,0,0,.4.16.63.63,0,0,0,.4-.16.59.59,0,0,0,0-.81Zm19.16,0a.57.57,0,0,0-.81.81.57.57,0,0,0,.81-.81ZM104.58,101a1,1,0,0,1,.42.48.18.18,0,0,1,0,.11A2.9,2.9,0,0,0,110,99.51a2.9,2.9,0,1,0-5.39,1.47Z"/><circle class="cls-3" cx="99.83" cy="43.02" r="2.45"/><circle class="cls-3" cx="26.55" cy="65.99" r="2.45"/><circle class="cls-3" cx="125.5" cy="72.07" r="2.45"/><circle class="cls-3" cx="64.71" cy="90.98" r="2.45"/><circle class="cls-3" cx="96.45" cy="1.49" r="2.45"/><circle class="cls-3" cx="31.95" cy="14.99" r="2.45"/><circle class="cls-3" cx="45.12" cy="109.55" r="2.45"/></g></svg>