<svg id="Capa_1" data-name="Capa 1" xmlns="http://www.w3.org/2000/svg" viewBox="0 0 15.81 22.97"><defs><style>.cls-1{fill:#0d3778;}</style></defs><title>botica-icono ubicacion</title><path class="cls-1" d="M7.92,23c-.85-1.37-1.66-2.66-2.45-4-1.36-2.23-2.72-4.46-4.05-6.71A8.64,8.64,0,0,1,0,7.8,7.63,7.63,0,0,1,5.38.4a7.89,7.89,0,0,1,9.54,4,7.21,7.21,0,0,1-.31,7.49c-1,1.65-2.06,3.25-3.06,4.9-.9,1.48-1.75,3-2.63,4.48ZM3.9,7.68a3.85,3.85,0,0,0,3.79,4.21,4.29,4.29,0,0,0,4.4-4.14A4.16,4.16,0,0,0,7.84,3.51C5.41,3.52,3.9,5.11,3.9,7.68Z"/></svg>