<svg id="Capa_1" data-name="Capa 1" xmlns="http://www.w3.org/2000/svg" viewBox="0 0 32.71 18.11"><defs><style>.cls-1{fill:#0c4aa5;}</style></defs><title>botica-icono menu cupones</title><path class="cls-1" d="M32.71,0V18.11H0V0ZM7.92,2.5Q5,2.52,5,5.5A2.61,2.61,0,0,0,7.92,8.38c1.78,0,2.75-1.06,2.74-3S9.7,2.48,7.92,2.5Zm8.8,10.08c0-2-1.07-3.05-3.12-2.92a2.48,2.48,0,0,0-2.39,1.77,3.29,3.29,0,0,0,.94,3.6,2.26,2.26,0,0,0,.28.16A2.82,2.82,0,0,0,16.73,12.57ZM8.37,14.39l6.19-9.92L13.19,3.8,7,13.69ZM21.85,2.53V5.65h1.78V2.53Zm1.76,12.95V12.37H21.86v3.11Zm-1.75-8V10.6h1.76V7.45H22.45Z"/><path class="cls-1" d="M8.79,5.4c0,1-.31,1.45-1.06,1.35s-.9-.62-.84-1.56c0-.71.4-1.11,1-1.12S8.78,4.48,8.79,5.4Z"/><path class="cls-1" d="M14.83,12.61c0,.13,0,.26,0,.38,0,.55-.21.91-.81.92A1,1,0,0,1,13,13a4.65,4.65,0,0,1,0-1,.85.85,0,0,1,.92-.86.83.83,0,0,1,.9.87c0,.17,0,.34,0,.51Z"/></svg>