<svg id="Capa_1" data-name="Capa 1" xmlns="http://www.w3.org/2000/svg" viewBox="0 0 27.05 28.19"><defs><style>.cls-1{fill:#0c4aa5;}</style></defs><title>botica-icono menu sugerencias</title><path id="_Trazado_compuesto_" data-name="&lt;Trazado compuesto&gt;" class="cls-1" d="M16.74,24.63v.82a1.31,1.31,0,0,1-1.11,1.29l-.2.75a.93.93,0,0,1-.9.69h-2a.93.93,0,0,1-.9-.69l-.2-.75a1.31,1.31,0,0,1-1.11-1.3v-.82a.79.79,0,0,1,.79-.79h4.84A.8.8,0,0,1,16.74,24.63Zm3.73-11.1a6.91,6.91,0,0,1-1.95,4.82,6.37,6.37,0,0,0-1.71,3.46,1.15,1.15,0,0,1-1.14,1H11.37a1.14,1.14,0,0,1-1.13-1,6.44,6.44,0,0,0-1.72-3.47,6.94,6.94,0,1,1,11.95-4.81Zm-6.16-4.2a.78.78,0,0,0-.78-.78,5,5,0,0,0-5,5,.78.78,0,0,0,1.57,0,3.45,3.45,0,0,1,3.45-3.45A.78.78,0,0,0,14.31,9.33Zm-.78-5a.78.78,0,0,0,.78-.78V.78a.78.78,0,1,0-1.57,0V3.53A.78.78,0,0,0,13.53,4.31ZM4.31,13.53a.78.78,0,0,0-.78-.78H.78a.78.78,0,1,0,0,1.57H3.53A.78.78,0,0,0,4.31,13.53Zm22-.78H23.52a.78.78,0,0,0,0,1.57h2.74a.78.78,0,1,0,0-1.57ZM5.9,20,4,22a.78.78,0,0,0,1.1,1.11L7,21.15A.78.78,0,0,0,5.9,20ZM20.6,7.24A.78.78,0,0,0,21.15,7l1.94-1.94A.78.78,0,0,0,22,4L20,5.9A.78.78,0,0,0,20,7,.8.8,0,0,0,20.6,7.24ZM5.9,7A.78.78,0,1,0,7,5.9L5.06,4A.78.78,0,1,0,4,5.06ZM21.15,20A.78.78,0,0,0,20,21.15L22,23.09A.78.78,0,0,0,23.08,22Z"/></svg>