<svg id="Capa_1" data-name="Capa 1" xmlns="http://www.w3.org/2000/svg" viewBox="0 0 23.14 23.14"><defs><style>.cls-1{fill:#0d3778;}</style></defs><title>botica-icono llamada</title><path class="cls-1" d="M17.73,23.14A10.72,10.72,0,0,1,13.31,22a26.83,26.83,0,0,1-12-11.71A10.58,10.58,0,0,1,0,5.28,2.37,2.37,0,0,1,.76,3.51c1-1,2-2,3-3A1.08,1.08,0,0,1,5.73.76C6.59,2.36,7.43,4,8.28,5.59a1.33,1.33,0,0,1-.21,1.59,12.58,12.58,0,0,1-1,1,.85.85,0,0,0-.24,1.08,9.81,9.81,0,0,0,2,3,18.31,18.31,0,0,0,3.57,3.23,13.85,13.85,0,0,0,1.6.82.72.72,0,0,0,.92-.22c.34-.38.71-.74,1.07-1.1a1.53,1.53,0,0,1,2-.26l4.4,2.59c1,.57,1,1.26.26,2-1,1-2,1.94-2.95,2.93A2.48,2.48,0,0,1,17.73,23.14Z"/></svg>