<svg id="Capa_1" data-name="Capa 1" xmlns="http://www.w3.org/2000/svg" viewBox="0 0 39.08 24.81"><defs><style>.cls-1{fill:#0c4aa5;}.cls-2{fill:#fff;}</style></defs><title>botica-icono menu categorias</title><rect class="cls-1" x="14.52" width="10.19" height="9.09" rx="0.94" ry="0.94"/><rect class="cls-1" y="15.72" width="10.19" height="9.09" rx="0.94" ry="0.94"/><rect class="cls-1" x="14.52" y="15.72" width="10.19" height="9.09" rx="0.94" ry="0.94"/><rect class="cls-1" x="28.9" y="15.72" width="10.19" height="9.09" rx="0.94" ry="0.94"/><polygon class="cls-1" points="35.26 16.76 34.76 16.76 34.76 13.72 5.37 13.72 5.37 16.25 4.86 16.25 4.86 13.21 35.26 13.21 35.26 16.76"/><rect class="cls-1" x="19.05" y="7.64" width="0.51" height="9.12"/><path class="cls-2" d="M17.36,6.78c-2-1-2-3.57-1-5.61a.84.84,0,0,0-.28-.6h-.53A.42.42,0,0,0,15.1,1V8.2a.42.42,0,0,0,.42.42H23.7a.42.42,0,0,0,.42-.42V7.56C21.89,6.92,19.53,7.87,17.36,6.78Z"/><path class="cls-2" d="M2.85,22.45c-2-1-2-3.57-1-5.61a.84.84,0,0,0-.28-.6H1a.42.42,0,0,0-.42.42v7.21a.42.42,0,0,0,.42.42H9.19a.42.42,0,0,0,.42-.42v-.63C7.39,22.59,5,23.54,2.85,22.45Z"/><path class="cls-2" d="M17.36,22.45c-2-1-2-3.57-1-5.61a.84.84,0,0,0-.28-.6h-.53a.42.42,0,0,0-.42.42v7.21a.42.42,0,0,0,.42.42H23.7a.42.42,0,0,0,.42-.42v-.63C21.89,22.59,19.53,23.54,17.36,22.45Z"/><path class="cls-2" d="M31.86,22.45c-2-1-2-3.57-1-5.61a.84.84,0,0,0-.28-.6H30a.42.42,0,0,0-.42.42v7.21a.42.42,0,0,0,.42.42H38.2a.42.42,0,0,0,.42-.42v-.63C36.39,22.59,34,23.54,31.86,22.45Z"/></svg>