<svg id="Capa_1" data-name="Capa 1" xmlns="http://www.w3.org/2000/svg" viewBox="0 0 22.25 25.69"><defs><style>.cls-1{fill:#0c4aa5;}</style></defs><title>botica-icono menu perfil</title><path class="cls-1" d="M22.25,25.69H0a7,7,0,0,1,2-5.87,25.3,25.3,0,0,1,4-2.66c.71-.45,1.51-.76,2.19-1.24s.72-1.2,0-1.75C4.27,11.29,4,4.47,7.69,1.31c2.6-2.22,6.22-1.55,8.16,1.52,2.31,3.66,1.59,9-1.87,11.36a1,1,0,0,0,0,1.68A14.62,14.62,0,0,0,15.89,17c1,.58,2.11,1.07,3.07,1.73C21.36,20.39,22.22,22.81,22.25,25.69Z"/></svg>