<svg id="Capa_1" data-name="Capa 1" xmlns="http://www.w3.org/2000/svg" viewBox="0 0 35.19 14.68"><defs><style>.cls-1{fill:#0c4aa5;}</style></defs><title>botica-icono menu servicios</title><path class="cls-1" d="M9.1,11.28,8,1.93C11,.76,14.07-.23,17.38,0c1.68.14,3.37.05,5.06,0,.79,0,1.38.23,1.5,1.06s-.46,1.18-1.22,1.34a56.73,56.73,0,0,0-5.6,1.42c2.32.24,4.64.49,7,.7a3,3,0,0,0,1.18-.21c2.6-.88,5.19-1.79,7.78-2.69a3.16,3.16,0,0,1,.53-.17,1.24,1.24,0,0,1,1.51.8,1.15,1.15,0,0,1-.56,1.52c-3.21,1.87-6.4,3.77-9.65,5.58a4.51,4.51,0,0,1-2.23.49c-3.25-.09-6.49-.22-9.73-.47A3.63,3.63,0,0,0,9.1,11.28Z"/><path class="cls-1" d="M.48,2.57,6.89,1.7,8.57,13.42,0,14.68Z"/></svg>