<svg id="Capa_1" data-name="Capa 1" xmlns="http://www.w3.org/2000/svg" viewBox="0 0 27.07 23.18"><defs><style>.cls-1{fill:#0d3778;}</style></defs><title>botica-icono chat</title><path class="cls-1" d="M1.92,23.18a8.82,8.82,0,0,0,1.86-4.87,1,1,0,0,0-.4-1A8.81,8.81,0,0,1,0,9.91,8.69,8.69,0,0,1,3.32,3.6,15.47,15.47,0,0,1,14.88,0a15,15,0,0,1,8,2.86A9.47,9.47,0,0,1,27,9.29a8.36,8.36,0,0,1-2.33,7.08A13.73,13.73,0,0,1,17,20.52a17.71,17.71,0,0,1-7.46-.14,1.45,1.45,0,0,0-1,.22,13.83,13.83,0,0,1-5.56,2.49C2.67,23.13,2.39,23.14,1.92,23.18Z"/></svg>