<svg id="Capa_1" data-name="Capa 1" xmlns="http://www.w3.org/2000/svg" viewBox="0 0 22.47 27.93"><defs><style>.cls-1{fill:#0c4aa5;}.cls-2{fill:#fff;}</style></defs><title>botica-icono menu recordatorios</title><path class="cls-1" d="M11.22,23.47c-3.09,0-6.18,0-9.26,0A1.56,1.56,0,0,1,.58,20.92c.87-1.26,1.75-2.52,2.59-3.8a2,2,0,0,0,.32-1c0-1.9-.05-3.81.07-5.71a7.53,7.53,0,0,1,5.6-6.76c.46-.12.6-.31.56-.75a6.78,6.78,0,0,1,0-1.16A1.5,1.5,0,0,1,11.19.26a1.47,1.47,0,0,1,1.53,1.37,10.38,10.38,0,0,1,0,1.44.44.44,0,0,0,.36.51A7.72,7.72,0,0,1,19,11.48c0,1.52,0,3,0,4.55a2.26,2.26,0,0,0,.34,1.12c.8,1.24,1.64,2.46,2.49,3.67a1.59,1.59,0,0,1-1.39,2.67C17.36,23.46,14.29,23.47,11.22,23.47Z"/><path class="cls-1" d="M14.56,24.31a3.07,3.07,0,0,1-1.5,2.77,3.15,3.15,0,0,1-3.65,0,3.07,3.07,0,0,1-1.5-2.77Z"/><path class="cls-2" d="M9.89,4.63c-.61-.25-3.2,1.23-4.17,2.58C4.36,9.11,4.42,11.68,4.58,14c.27,3.84-1.34,5.18-2.76,7.24-.33.48-.17,1.15.41,1.19,5.21.38,12.56.22,17.84.06A47.75,47.75,0,0,1,10.32,20a3.76,3.76,0,0,1-1.38-.71,3.06,3.06,0,0,1-.3-3.46c.51-1.12,1.36-2.07,1.86-3.21a3,3,0,0,0-.43-3.43c-.26-.22-.6-.39-.74-.7-.44-1,1.47-1.87,1.07-2.88a1.71,1.71,0,0,1-.72-.33"/><path class="cls-2" d="M10,24.79a8,8,0,0,0-1.22,0,.13.13,0,0,0-.07,0,.14.14,0,0,0,0,.1,1,1,0,0,0,.2.69,3.11,3.11,0,0,0,2,1.53,2.86,2.86,0,0,0,1.21.07c.14,0,.32-.07.32-.21a1.07,1.07,0,0,0-.64-.26,2.68,2.68,0,0,1-.82-.31.4.4,0,0,1-.15-.13c-.1-.16,0-.37,0-.56a.75.75,0,0,0-.36-.71,1.91,1.91,0,0,0-.77-.23"/></svg>